<?xml version="1.0" encoding="utf-8"?>
<!-- Generator: Adobe Illustrator 26.1.0, SVG Export Plug-In . SVG Version: 6.00 Build 0)  -->
<svg version="1.0" id="Layer_1" xmlns="http://www.w3.org/2000/svg" xmlns:xlink="http://www.w3.org/1999/xlink" x="0px" y="0px"
	 viewBox="0 0 192 192" style="enable-background:new 0 0 192 192;" xml:space="preserve">
<style type="text/css">
	.st0{stroke:#FFFFFF;stroke-miterlimit:10;}
	.st1{fill:none;stroke:#FFFFFF;stroke-miterlimit:10;}
	.st2{fill:#FFFFFF;}
	.st3{fill:#F2612B;}
	.st4{fill:#F04E24;}
	.st5{font-family:'UniversalSerif';}
	.st6{font-size:49.3303px;}
	.st7{letter-spacing:-2;}
	.st8{letter-spacing:2;}
	.st9{fill:#F2612B;stroke:#F2622C;stroke-width:0.9677;stroke-miterlimit:10;}
	.st10{fill:#F04D23;}
</style>
<g>
	<text transform="matrix(1 0 0 1 -3.7471 87.7009)"><tspan x="0" y="0" class="st4 st5 st6">S</tspan><tspan x="35.8" y="0" class="st4 st5 st6">T</tspan><tspan x="72.1" y="0" class="st4 st5 st6 st7">A</tspan><tspan x="109.7" y="0" class="st4 st5 st6 st8">T</tspan><tspan x="-1" y="44.9" class="st4 st5 st6">B</tspan><tspan x="36" y="44.9" class="st4 st5 st6">L</tspan><tspan x="72" y="44.9" class="st4 st5 st6">O</tspan><tspan x="112.5" y="44.9" class="st4 st5 st6 st8">C</tspan><tspan x="153.3" y="44.9" class="st4 st5 st6">K</tspan></text>
</g>
<g>
	<path class="st2" d="M190.2,65.4c0,1.3,0,2.7,0,4c0,3.8,0,7.6,0,11.4c0,0.7-0.2,1.3-0.7,1.8c-0.1,0.1-0.3,0.2-0.4,0.3
		c-0.6,0.3-1.1,0.6-1.7,1c-1,0.6-1.9,1.1-2.9,1.7c-0.7,0.4-1.5,0.8-2.2,1.2c-0.9,0.5-1.8,1-2.7,1.6c-0.8,0.5-1.6,0.9-2.4,1.4
		c-1,0.6-2,1.1-3,1.7c-0.7,0.4-1.3,0.8-2,1.1c-0.7,0.3-1.4,0.4-2.2,0.1c-0.6-0.2-1.2-0.6-1.8-1c-0.7-0.4-1.5-0.8-2.2-1.2
		c-0.9-0.5-1.8-1-2.7-1.5c-0.7-0.4-1.5-0.8-2.2-1.3c-0.5-0.3-0.9-0.5-1.4-0.8c-0.5-0.3-1-0.6-1.6-0.9c-0.4-0.3-0.9-0.5-1.3-0.8
		c-0.8-0.4-1.5-0.9-2.3-1.3c-0.5-0.3-1-0.5-1.5-0.9c-0.4-0.3-0.8-0.7-1-1.2c-0.1-0.3-0.1-0.5-0.1-0.8c0-1.7,0-3.3,0-5
		c0-4.7,0-9.3,0-14c0-0.6,0.2-1.2,0.6-1.7c0.1-0.1,0.2-0.2,0.4-0.3c0.6-0.4,1.2-0.7,1.8-1.1c1-0.6,2.1-1.2,3.1-1.8
		c0.8-0.5,1.7-1,2.5-1.4c1-0.6,2.1-1.2,3.1-1.8c0.5-0.3,1.1-0.6,1.6-0.9c0.4-0.2,0.8-0.4,1.2-0.7c0.6-0.4,1.2-0.7,1.9-1.1
		c0.6-0.3,1.2-0.7,1.8-1c0.4-0.2,0.9-0.3,1.4-0.2c0.4,0.1,0.8,0.2,1.2,0.4c0.3,0.2,0.5,0.3,0.8,0.5c0.7,0.4,1.4,0.8,2.1,1.2
		c0.8,0.4,1.6,0.9,2.4,1.3c0.9,0.5,1.7,1,2.6,1.5c0.8,0.4,1.5,0.8,2.3,1.3c0.7,0.4,1.5,0.9,2.2,1.3c0.5,0.3,1,0.5,1.5,0.8
		c0.7,0.4,1.3,0.8,2,1.2c0.3,0.2,0.5,0.3,0.8,0.5c0.5,0.3,0.8,0.8,0.9,1.3c0,0.1,0,0.2,0,0.3C190.2,62.8,190.2,64.1,190.2,65.4
		C190.2,65.4,190.2,65.4,190.2,65.4z"/>
</g>
<g>
	<path class="st2" d="M181.6,75.4c-0.1,0-0.2,0-0.2,0c-2.1,0-4.2,0-6.4,0c-4.7,0-9.3,0-14,0.1c-0.1,0-0.3,0-0.4,0
		c-0.1,0-0.2,0-0.2-0.1c0-0.1,0-0.2,0.1-0.2c0.3-0.4,0.5-0.8,0.8-1.2c0.4-0.6,0.8-1.2,1.3-1.8c0.4-0.6,0.8-1.2,1.2-1.8
		c0.4-0.6,0.9-1.3,1.3-1.9c0.5-0.7,1-1.5,1.5-2.2c0.4-0.6,0.8-1.2,1.2-1.8c0.5-0.7,1-1.5,1.5-2.2c0.4-0.6,0.9-1.3,1.3-1.9
		c0.1-0.2,0.3-0.4,0.4-0.6c0.1-0.1,0.1-0.1,0.2,0c0.4,0.6,0.8,1.2,1.2,1.8c0.3,0.5,0.7,1,1,1.5c0.5,0.7,0.9,1.3,1.4,2
		c0.4,0.6,0.9,1.3,1.3,1.9c0.4,0.6,0.8,1.1,1.1,1.7c0.4,0.6,0.9,1.3,1.3,1.9c0.3,0.5,0.7,1,1,1.5c0.3,0.5,0.7,1,1,1.5
		c0.3,0.4,0.5,0.8,0.8,1.2C181.4,75.1,181.5,75.3,181.6,75.4z M171.3,70.3c0,0.1,0,0.2,0,0.3c0,0.5,0.1,0.9,0.2,1.4
		c0.1,0.5,0.4,0.9,0.8,1.1c0.2,0.1,0.5,0.3,0.8,0.3c0.4,0,0.8,0,1.2-0.1c0,0,0.1,0,0.1,0c0.6-0.3,0.9-0.7,1.1-1.3
		c0.2-0.5,0.2-1.1,0.2-1.7c0-0.2,0-0.4-0.1-0.6c0-0.4-0.1-0.7-0.2-1c-0.1-0.5-0.3-0.9-0.8-1.2c-0.4-0.2-0.8-0.4-1.2-0.4
		c-0.5,0-0.9,0.1-1.3,0.4c-0.4,0.3-0.6,0.6-0.8,1C171.4,69.1,171.3,69.7,171.3,70.3z M168.4,73.4C168.4,73.4,168.4,73.4,168.4,73.4
		c0.3,0,0.7,0,1,0c0.3,0,0.6,0,0.9-0.1c0.1,0,0.2-0.1,0.3-0.2c0-0.2,0-0.4,0-0.5c-0.1-0.2-0.3-0.3-0.5-0.3c-0.6,0-1.2-0.1-1.7-0.1
		c-0.1,0-0.1,0-0.2,0c-0.1,0-0.2,0-0.1-0.2c0.4-0.5,0.9-0.9,1.4-1.3c0.2-0.2,0.4-0.3,0.6-0.5c0.4-0.5,0.6-1,0.5-1.6
		c-0.1-0.4-0.2-0.7-0.5-1c-0.4-0.4-0.9-0.5-1.4-0.6c-0.6-0.1-1.1,0.1-1.6,0.4c-0.3,0.1-0.5,0.3-0.6,0.6c-0.2,0.3-0.1,0.7-0.1,1
		c0,0.2,0.1,0.2,0.3,0.3c0.1,0,0.3,0,0.4,0c0.1,0,0.1-0.1,0.2-0.1c0.1-0.2,0.3-0.5,0.4-0.7c0.2-0.5,0.7-0.7,1.1-0.5
		c0.6,0.2,0.9,0.8,0.5,1.5c-0.2,0.4-0.6,0.6-0.9,0.9c-0.6,0.5-1.2,0.9-1.7,1.5c-0.1,0.1-0.2,0.3-0.3,0.5c-0.1,0.4,0,0.7,0.4,0.8
		c0.2,0.1,0.4,0.1,0.5,0.1C167.6,73.4,168,73.4,168.4,73.4z"/>
	<path class="st2" d="M171,90.7c-0.2-0.2-0.3-0.4-0.5-0.6c-0.3-0.4-0.6-0.8-0.9-1.2c-0.4-0.5-0.8-1-1.2-1.6
		c-0.4-0.5-0.8-0.9-1.1-1.4c-0.4-0.5-0.8-1-1.1-1.5c-0.3-0.4-0.6-0.7-0.8-1.1c-0.4-0.5-0.7-1-1.1-1.5c-0.3-0.4-0.6-0.7-0.9-1.1
		c-0.4-0.5-0.8-1-1.2-1.6c-0.4-0.5-0.7-0.9-1.1-1.4c-0.2-0.2-0.4-0.5-0.5-0.7c0,0-0.1-0.1-0.1-0.2c0-0.1,0-0.2,0.1-0.2
		c0.1,0,0.2,0,0.2,0c6.8,0,13.6,0,20.4,0c0.1,0,0.3-0.1,0.4,0.1c0.1,0.2-0.1,0.3-0.2,0.4c-0.4,0.5-0.7,0.9-1.1,1.4
		c-0.2,0.3-0.5,0.6-0.7,0.9c-0.5,0.7-1.1,1.3-1.5,2c-0.3,0.5-0.7,0.9-1.1,1.4c-0.6,0.8-1.2,1.6-1.8,2.3c-0.3,0.4-0.7,0.9-1,1.3
		c-0.4,0.5-0.8,1-1.2,1.6c-0.4,0.5-0.8,1-1.2,1.5c-0.2,0.2-0.4,0.5-0.6,0.7C171.1,90.6,171,90.6,171,90.7z M167.8,82.6
		C167.8,82.6,167.8,82.6,167.8,82.6c0,0.4,0,0.8,0,1.2c0,0.1,0,0.3,0.2,0.4c0.3,0.3,0.8,0.2,1.2-0.2c0.3-0.4,0.5-0.7,0.8-1.1
		c0.6-0.7,1.1-1.5,1.7-2.2c0.1-0.1,0.2-0.3,0.2-0.4c0-0.4-0.2-0.7-0.7-0.7c-0.6,0-1.3,0-1.9,0c-0.2,0-0.3-0.1-0.4-0.3
		c0-0.1,0-0.2,0-0.3c0-0.2,0-0.3-0.1-0.4c0-0.2-0.4-0.4-0.6-0.2c-0.2,0.1-0.4,0.2-0.4,0.5c0,0.2,0,0.4,0,0.7c0,0.1-0.1,0.2-0.1,0.2
		c-0.1,0-0.3,0-0.5,0.1c-0.1,0-0.2,0.1-0.2,0.1c-0.1,0.2-0.1,0.4,0,0.5c0,0.2,0.2,0.2,0.3,0.2c0.1,0,0.1,0,0.2,0
		c0.2,0,0.3,0.1,0.3,0.3C167.7,81.3,167.7,82,167.8,82.6z M172.8,81.2C172.8,81.2,172.8,81.2,172.8,81.2c0,0.8,0,1.6,0,2.4
		c0,0.1,0,0.2,0,0.3c0,0.2,0.2,0.3,0.4,0.3c0.1,0,0.2,0,0.3,0c0.3,0,0.5-0.2,0.5-0.5c0-0.8,0-1.5,0-2.3c0-1,0-1.9,0-2.9
		c0-0.1,0-0.2-0.1-0.3c-0.1-0.1-0.3-0.2-0.4-0.2c-0.4,0-0.6,0.3-0.6,0.7C172.8,79.6,172.8,80.4,172.8,81.2z"/>
	<path class="st2" d="M188.4,61.2c-0.1,0.2-0.1,0.4-0.2,0.5c-0.4,1-0.9,2.1-1.3,3.1c-0.3,0.6-0.5,1.3-0.7,2c-0.3,0.7-0.5,1.3-0.8,2
		c-0.2,0.5-0.4,0.9-0.6,1.3c-0.2,0.6-0.4,1.1-0.7,1.7c-0.1,0.4-0.3,0.8-0.4,1.2c-0.2,0.5-0.4,1-0.6,1.5c0,0.1-0.1,0.1-0.1,0.2
		c-0.1,0.1-0.1,0.1-0.2,0c-0.5-0.7-1-1.5-1.5-2.2c-0.4-0.6-0.8-1.1-1.2-1.7c-0.7-1-1.3-2-2-3c-0.6-0.8-1.1-1.6-1.7-2.4
		c-0.4-0.7-0.9-1.3-1.3-2c-0.5-0.7-0.9-1.3-1.4-2c-0.4-0.6-0.8-1.2-1.2-1.7c0,0,0-0.1,0-0.1c0,0,0.1-0.1,0.1,0
		c0.6,0.1,1.2,0.1,1.9,0.2c0.8,0.1,1.6,0.2,2.4,0.3c0.4,0,0.7,0.1,1.1,0.1c0.5,0.1,1.1,0.1,1.6,0.2c0.3,0,0.5,0.1,0.8,0.1
		c0.6,0.1,1.2,0.1,1.8,0.2c0.7,0.1,1.5,0.1,2.2,0.2c0.7,0.1,1.3,0.1,2,0.2c0.5,0.1,1.1,0.1,1.6,0.2c0.1,0,0.3,0.1,0.4,0.1
		C188.3,61.1,188.4,61.1,188.4,61.2z M183.2,65.9c0.7,0,1.2-0.1,1.6-0.7c0.3-0.5,0.3-0.9,0.2-1.4c-0.1-0.3-0.2-0.5-0.4-0.8
		c-0.4-0.8-1.3-1.1-2.1-1c-0.1,0-0.2,0.1-0.4,0.1c-0.4,0.2-0.5,0.3-0.4,0.7c0,0.1,0.1,0.2,0.2,0.2c0.3,0,0.7,0,1,0
		c0.2,0,0.4,0,0.6,0.2c0.1,0.1,0.2,0.2,0.2,0.2c0.2,0.3,0.3,0.6,0.1,0.9c-0.2,0.3-0.6,0.5-1,0.6c-0.3,0-0.7-0.1-1-0.1
		c-0.4-0.1-0.8-0.2-1.2-0.3c-0.5-0.2-1-0.2-1.6-0.2c-0.4,0-0.7,0.3-0.5,0.7c0.1,0.3,0.2,0.5,0.4,0.7c0.4,0.6,0.9,1.2,1.3,1.8
		c0.1,0.2,0.2,0.4,0.5,0.5c0.2,0,0.5,0,0.6-0.2c0-0.2,0-0.4,0-0.6c-0.1-0.2-0.2-0.4-0.3-0.5c-0.3-0.4-0.6-0.8-0.8-1.1
		c0,0,0-0.1,0-0.1c0,0,0.1-0.1,0.1-0.1c0.1,0,0.2,0,0.3,0.1c0.4,0.1,0.8,0.2,1.2,0.3C182.2,65.7,182.7,65.9,183.2,65.9z"/>
	<path class="st2" d="M169.4,59.4c-0.1,0.5-0.4,0.8-0.6,1.2c-0.4,0.6-0.9,1.3-1.3,1.9c-0.4,0.5-0.7,1-1.1,1.5
		c-0.3,0.4-0.5,0.7-0.8,1.1c-0.2,0.3-0.4,0.5-0.6,0.8c-0.1,0.2-0.3,0.4-0.4,0.6c-0.3,0.5-0.5,0.9-0.9,1.3c-0.2,0.3-0.4,0.6-0.6,0.9
		c-0.4,0.6-0.7,1.1-1.1,1.7c-0.4,0.6-0.9,1.2-1.3,1.8c-0.3,0.5-0.7,0.9-1,1.4c-0.2,0.3-0.4,0.5-0.6,0.8c0,0-0.1,0.1-0.1,0.2
		c-0.1-0.2-0.2-0.4-0.2-0.6c-0.3-0.8-0.6-1.5-0.9-2.3c-0.4-0.9-0.7-1.8-1.1-2.7c-0.5-1.3-1.1-2.7-1.6-4c-0.3-0.7-0.6-1.4-0.9-2.1
		c-0.2-0.5-0.4-1.1-0.7-1.6c-0.1-0.1,0-0.2,0.1-0.2c0.4-0.1,0.8-0.1,1.2-0.2c0.4-0.1,0.7-0.1,1-0.2c0.2,0,0.5-0.1,0.7-0.1
		c0.4,0,0.8-0.1,1.2-0.1c0.6-0.1,1.1-0.1,1.7-0.2c0.4,0,0.7-0.1,1.1-0.1c0.6-0.1,1.2-0.1,1.8-0.2c0.3,0,0.7-0.1,1-0.1
		c0.6-0.1,1.3-0.1,1.9-0.2c0.3,0,0.7-0.1,1-0.1c0.7-0.1,1.4-0.1,2.1-0.2c0.3,0,0.6-0.1,0.9-0.1C169.3,59.4,169.3,59.4,169.4,59.4z
		 M156.7,64.3c0,0.1,0,0.2,0,0.3c0,0.4,0.2,0.7,0.4,1c0.4,0.4,0.9,0.4,1.5,0.3c0.3-0.1,0.3-0.1,0.4,0.2c0.1,0.6,0.4,1,1,1.3
		c0.4,0.2,0.8,0.2,1.2,0.1c0.5-0.1,0.9-0.4,1.2-0.8c0.3-0.4,0.5-0.9,0.6-1.4c0-0.4,0-0.9-0.3-1.2c-0.3-0.4-0.7-0.7-1.2-0.8
		c-0.4,0-0.7,0-1.1,0.2c-0.1,0-0.2,0.1-0.2,0c-0.1-0.1-0.1-0.3-0.2-0.4c-0.1-0.2-0.2-0.4-0.4-0.5c-0.4-0.3-0.9-0.3-1.4-0.2
		c-0.4,0.1-0.7,0.3-1,0.6C156.9,63.2,156.7,63.7,156.7,64.3z"/>
	<path class="st2" d="M173.1,90.3c0.2-0.2,0.3-0.5,0.5-0.7c0.5-0.6,0.9-1.2,1.4-1.8c0.3-0.4,0.7-0.9,1-1.3c0.5-0.6,0.9-1.2,1.4-1.8
		c0.5-0.6,0.9-1.2,1.4-1.8c0.4-0.5,0.7-0.9,1-1.4c0.3-0.4,0.6-0.8,0.9-1.2c0.4-0.5,0.8-1.1,1.2-1.6c0.3-0.4,0.6-0.8,0.9-1.1
		c0,0,0.1-0.1,0.1-0.1c0.2-0.2,0.2-0.2,0.4,0c0.7,0.6,1.4,1.2,2.1,1.8c0.6,0.5,1.2,1,1.8,1.5c0.3,0.3,0.6,0.5,0.9,0.8
		c0.1,0.1,0.1,0.2,0,0.2c-0.6,0.5-1.4,0.8-2.1,1.2c-0.5,0.2-0.9,0.5-1.4,0.8c-0.9,0.5-1.8,1.1-2.7,1.6c-0.5,0.3-1,0.5-1.4,0.8
		c-0.8,0.4-1.6,0.9-2.5,1.3c-0.7,0.4-1.4,0.8-2,1.2c-0.7,0.4-1.3,0.8-2,1.2c-0.3,0.2-0.6,0.3-1,0.5
		C173.2,90.3,173.1,90.3,173.1,90.3z M178.6,84.4c0.2,0,0.4,0,0.5,0c0.3,0,0.3,0,0.2,0.3c0,0.1,0,0.1,0.1,0.2c0.3,0.1,0.5,0,0.7-0.2
		c0.2-0.2,0.4-0.4,0.7-0.6c0.1-0.1,0.2-0.1,0.2-0.1c0.4-0.1,0.8-0.2,1.1-0.2c0.5-0.1,0.9-0.2,1.4-0.3c0.4-0.1,0.9-0.2,1-0.7
		c0.1-0.2,0.1-0.3-0.1-0.4c-0.2-0.2-0.4-0.3-0.6-0.5c-0.3-0.2-0.7-0.5-1-0.7c-0.1-0.1-0.2-0.1-0.3-0.1c-0.4,0.2-0.8,0.4-1.1,0.8
		c-0.2,0.2-0.4,0.5-0.6,0.7c-0.1,0.2-0.3,0.4-0.4,0.5c-0.2,0.2-0.3,0.4-0.5,0.4c-0.2,0.1-0.4,0.1-0.7,0.2
		C179,83.8,178.8,84,178.6,84.4z"/>
	<path class="st2" d="M187.1,59.6c-0.5-0.1-1-0.1-1.5-0.2c-0.3,0-0.6-0.1-0.8-0.1c-0.6-0.1-1.2-0.1-1.8-0.2c-0.7-0.1-1.3-0.1-2-0.2
		c-0.8-0.1-1.6-0.2-2.4-0.3c-0.6-0.1-1.1-0.1-1.7-0.2c-0.8-0.1-1.6-0.2-2.4-0.3c-0.6-0.1-1.2-0.1-1.8-0.2c-0.3,0-0.5,0-0.8-0.1
		c-0.3,0-0.3-0.1-0.3-0.4c0-2.2,0-4.4,0-6.7c0-0.2,0.1-0.2,0.2-0.1c0.7,0.4,1.4,0.8,2.1,1.2c0.8,0.5,1.6,0.9,2.4,1.4
		c0.9,0.5,1.9,1.1,2.8,1.6c0.9,0.5,1.7,1,2.6,1.5c0.9,0.5,1.8,1,2.7,1.5c0.9,0.5,1.7,1,2.6,1.5C187,59.4,187.1,59.5,187.1,59.6
		C187.1,59.5,187.1,59.6,187.1,59.6z M181.9,57.7C181.9,57.7,181.9,57.7,181.9,57.7c-0.1-0.2-0.1-0.3-0.2-0.3
		c-0.5-0.2-1-0.4-1.6-0.4c-0.3,0-0.7-0.1-1-0.2c-0.2-0.1-0.2-0.1-0.1-0.3c0.1-0.1,0.1-0.2,0.2-0.2c0.1-0.2,0.1-0.5,0-0.7
		c-0.1-0.1-0.2-0.2-0.3-0.2c-0.3-0.2-0.6-0.3-1-0.5c-0.6-0.3-1.3-0.3-1.9-0.4c-0.1,0-0.2,0-0.3,0.1c-0.2,0.1-0.3,0.3-0.1,0.5
		c0.2,0.2,0.4,0.3,0.7,0.3c0.1,0,0.2,0,0.2-0.2c0-0.2,0.1-0.3,0.4-0.3c0.4,0,0.7,0.2,1,0.4c0.1,0.1,0.2,0.2,0.3,0.4
		c0,0.1-0.1,0.2-0.1,0.2c-0.1,0.1-0.1,0.2-0.2,0.3c-0.2,0.3-0.2,0.6,0.1,0.8c0.2,0.2,0.5,0.3,0.7,0.4c0.5,0.1,1,0.2,1.6,0.2
		c0.3,0,0.7,0.1,1,0.1C181.3,57.7,181.6,57.7,181.9,57.7z M176.8,57.2C176.8,57.2,176.8,57.2,176.8,57.2c-0.8-0.9-1.6-1.6-2.4-2.4
		c-0.3-0.3-0.6-0.5-1.1-0.4c0,0-0.1,0-0.1,0c0,0,0,0.1,0,0.1c0.2,0.3,0.4,0.5,0.6,0.8c0.4,0.4,0.8,0.9,1.2,1.3
		c0.2,0.2,0.4,0.4,0.6,0.5C176,57.4,176.4,57.3,176.8,57.2z"/>
	<path class="st2" d="M168.8,90.3c-0.1,0-0.2-0.1-0.3-0.1c-0.8-0.4-1.5-0.9-2.3-1.3c-0.9-0.5-1.8-1-2.8-1.6c-0.9-0.5-1.8-1-2.7-1.5
		c-1-0.5-1.9-1.1-2.9-1.6c-0.7-0.4-1.4-0.8-2.2-1.2c-0.7-0.4-1.3-0.8-2-1.2c-0.2-0.1-0.2-0.2,0-0.4c0.8-0.6,1.5-1.2,2.3-1.9
		c0.4-0.3,0.7-0.6,1.1-0.9c0.5-0.4,1.1-0.9,1.6-1.3c0.1-0.1,0.2,0,0.2,0c0.1,0.1,0.2,0.3,0.4,0.4c0.3,0.4,0.6,0.8,1,1.3
		c0.4,0.6,0.9,1.2,1.3,1.8c0.3,0.3,0.5,0.7,0.8,1c0.5,0.6,1,1.3,1.5,1.9c0.4,0.5,0.9,1.1,1.3,1.6c0.4,0.5,0.8,1,1.1,1.5
		c0.4,0.5,0.7,0.9,1.1,1.4c0.4,0.5,0.8,1,1.1,1.5C168.6,90,168.7,90.1,168.8,90.3C168.8,90.3,168.8,90.3,168.8,90.3z M160,83.6
		C160,83.6,160,83.6,160,83.6c-0.2-0.1-0.4-0.1-0.6-0.2c-0.3-0.2-0.8-0.3-1-0.7c-0.1-0.1-0.1-0.1,0-0.2c0.2-0.1,0.2-0.4,0.1-0.5
		c-0.2-0.2-0.5-0.3-0.9-0.3c-0.2,0-0.4,0.2-0.3,0.4c0.2,0.6,0.6,1,1.1,1.4c0.4,0.3,0.9,0.6,1.4,0.8c0.7,0.3,1.4,0.5,2.1,0.7
		c0.4,0.1,0.8,0,1.2,0c0.2,0,0.3-0.1,0.3-0.3c0-0.1,0-0.3-0.1-0.4c-0.2-0.6-0.8-1-1.3-1.4c-0.3-0.3-0.8-0.4-1.2-0.6
		c-0.4-0.2-0.8-0.3-1.3-0.3c-0.4,0-0.6,0.3-0.4,0.7c0.2,0.3,0.5,0.6,0.7,0.9C160,83.5,160,83.6,160,83.6z M160.3,81.1
		c0,0.2-0.1,0.4,0.1,0.6c0.2,0.2,0.5,0.3,0.7,0.4c0.1,0,0.2,0,0.3-0.1c0,0,0-0.2,0-0.3C161.4,81.4,160.8,81.1,160.3,81.1z"/>
	<path class="st2" d="M170.3,55.9c0,0.3,0,1,0,1.6c0,0.3-0.1,0.4-0.3,0.4c-0.3,0-0.5,0.1-0.8,0.1c-0.6,0.1-1.3,0.1-1.9,0.2
		c-0.6,0.1-1.1,0.1-1.7,0.2c-0.6,0.1-1.1,0.1-1.7,0.2c-0.3,0-0.7,0.1-1,0.1c-0.6,0.1-1.1,0.1-1.7,0.2c-0.3,0-0.7,0.1-1,0.1
		c-0.8,0.1-1.6,0.2-2.4,0.3c-0.3,0-0.5,0.1-0.8,0.1c-0.6,0.1-1.2,0.1-1.8,0.2c-0.1,0-0.2,0-0.3,0c0,0-0.1,0-0.1,0c0,0,0-0.1,0.1-0.1
		c0.4-0.2,0.7-0.4,1.1-0.6c0.9-0.5,1.7-1,2.6-1.5c0.8-0.4,1.5-0.9,2.3-1.3c0.9-0.5,1.8-1,2.7-1.6c1-0.6,2-1.1,3.1-1.7
		c0.8-0.4,1.5-0.9,2.3-1.3c0.4-0.2,0.8-0.4,1.1-0.7c0.2-0.1,0.2-0.1,0.2,0.1c0,0.7,0,1.5,0,2.2C170.3,54,170.3,54.8,170.3,55.9z
		 M164.8,57.4c0.7,0.1,1.3-0.1,1.9-0.3c0.4-0.2,0.9-0.4,1.2-0.7c0.3-0.3,0.7-0.6,0.8-1.1c0.1-0.2,0.1-0.4,0.1-0.5
		c0-0.1,0-0.3-0.2-0.3c-0.3-0.1-0.7-0.1-1-0.1c-0.2,0-0.3,0.1-0.5,0.1c-0.3,0.1-0.7,0.1-1,0.3c-0.5,0.2-1,0.4-1.4,0.8
		c-0.4,0.4-0.8,0.7-1.1,1.2c-0.1,0.1,0,0.4,0.1,0.5c0,0.1,0.2,0.1,0.3,0.2C164.4,57.4,164.6,57.3,164.8,57.4z M165,54.8
		c-0.3-0.1-0.5-0.1-0.7,0c-0.7,0.3-1.2,0.7-1.8,1.1c-0.6,0.4-1.1,0.8-1.7,1.2c-0.2,0.2-0.4,0.3-0.6,0.5c-0.1,0.1-0.1,0.2-0.1,0.3
		c0,0,0.1,0,0.2,0c0.6-0.1,1-0.3,1.5-0.7c0.5-0.4,1.1-0.8,1.6-1.2c0.4-0.3,0.8-0.6,1.2-0.9C164.8,55.1,164.9,55,165,54.8z"/>
	<path class="st2" d="M152.8,80.3c0-5.7-0.1-11.4-0.1-17.1c0,0,0.1,0,0.1,0c0.1,0.1,0.1,0.2,0.1,0.3c0.4,0.9,0.7,1.8,1.1,2.7
		c0.4,1,0.8,1.9,1.1,2.9c0.3,0.8,0.7,1.7,1,2.5c0.3,0.7,0.6,1.4,0.9,2.1c0.2,0.6,0.5,1.1,0.7,1.7c0.1,0.2,0.2,0.4,0.3,0.7
		c0,0,0,0.1,0,0.1c-0.5,0.4-1,0.8-1.5,1.2c-0.6,0.5-1.2,1-1.9,1.6c-0.4,0.4-0.8,0.7-1.2,1.1C153.3,80.1,153.1,80.2,152.8,80.3
		C152.9,80.3,152.9,80.3,152.8,80.3z M153.6,72c0-0.3,0-0.6-0.1-0.9c0-0.1-0.1-0.1-0.2,0c-0.1,0.1-0.2,0.3-0.2,0.4
		c0,0.5,0.1,1.1,0.3,1.6c0.1,0.4,0.3,0.7,0.6,1c0.2,0.1,0.5,0.1,0.6,0c0.3-0.3,0.4-0.7,0.5-1.1c0.1-0.6,0.1-1.3-0.1-1.9
		c-0.1-0.5-0.3-1-0.6-1.4c-0.1-0.1-0.2-0.3-0.4-0.4c-0.1,0-0.2,0-0.2,0.1c-0.2,0.1-0.3,0.3-0.3,0.6c0,0.2-0.1,0.5,0,0.7
		c0,0.3,0.1,0.5,0.1,0.8c0.1,0.4,0.2,0.8,0.5,1.2c0.1,0.1,0.1,0.1,0.1,0.2c0.1,0.1,0,0.2-0.1,0.3c0,0-0.1,0.1-0.2,0
		c-0.2-0.2-0.4-0.4-0.4-0.7C153.7,72.2,153.6,72.1,153.6,72z M154.8,75.8c0,0.1,0,0.2,0,0.3c0,0.2,0.1,0.2,0.2,0.2
		c0.2,0,0.3-0.2,0.3-0.3c0.2-0.5,0.4-1.1,0.7-1.6c0.2-0.4,0.3-0.7,0.2-1.1c0-0.1-0.1-0.3-0.1-0.4c-0.1-0.1-0.2-0.1-0.2,0
		c-0.3,0.6-0.6,1.2-0.9,1.9C154.8,75.1,154.7,75.4,154.8,75.8z"/>
	<path class="st2" d="M189.1,68.6c0,1.7,0,3.4,0,5.1c0,2.1,0,4.2,0.1,6.2c0,0,0,0.1,0,0.1c0,0.1-0.1,0.2-0.2,0.1
		c-0.2-0.2-0.5-0.4-0.7-0.5c-0.5-0.4-1-0.8-1.5-1.3c-0.4-0.3-0.7-0.6-1-0.9c-0.6-0.5-1.2-1-1.8-1.5c-0.1-0.1-0.1-0.1-0.1-0.2
		c0.2-0.4,0.3-0.8,0.5-1.2c0.2-0.5,0.4-1.1,0.6-1.6c0.2-0.5,0.4-0.9,0.6-1.4c0.2-0.6,0.5-1.2,0.7-1.8c0.5-1.2,1-2.5,1.5-3.7
		c0.3-0.8,0.7-1.7,1-2.5c0-0.1,0.1-0.2,0.1-0.3c0,0,0-0.1,0.1,0c0,0,0.1,0,0.1,0.1c0,0,0,0.1,0,0.1
		C189.1,65.2,189.1,66.9,189.1,68.6C189.1,68.6,189.1,68.6,189.1,68.6z M187.9,74.1c0-0.2,0-0.5-0.1-0.8c-0.1-0.1-0.1-0.2-0.3-0.2
		c-0.2,0-0.3-0.1-0.3-0.3c0-0.1,0-0.3-0.1-0.4c-0.1-0.2-0.1-0.5-0.3-0.7c-0.1-0.1-0.2-0.1-0.3-0.1c-0.4,0.3-0.6,0.7-0.8,1.2
		c-0.1,0.5-0.2,1-0.2,1.5c0,0.3,0,0.5,0.1,0.8c0.1,0.3,0.2,0.4,0.5,0.3c0.1,0,0.2,0,0.2,0.1c0,0.2,0.1,0.4,0.2,0.6
		c0.1,0.1,0.2,0.3,0.3,0.4c0.2,0.1,0.5-0.1,0.6-0.3C187.7,75.6,187.9,74.9,187.9,74.1z M188.7,72.9
		C188.6,72.9,188.6,72.9,188.7,72.9c-0.1-0.1,0-0.2-0.1-0.3c-0.1-0.4-0.3-0.8-0.5-1.2c-0.2-0.5-0.4-1.1-0.6-1.6
		c0-0.1-0.1-0.2-0.2-0.3c0,0-0.1,0-0.2,0c-0.2,0.2-0.3,0.6-0.2,0.9c0.3,0.7,0.5,1.3,0.8,2c0.1,0.3,0.3,0.7,0.4,1
		c0.1,0.2,0.3,0.2,0.3,0C188.5,73.2,188.6,73,188.7,72.9z"/>
	<path class="st10" d="M171.3,70.3c0-0.6,0-1.2,0.2-1.7c0.1-0.4,0.4-0.8,0.8-1c0.4-0.3,0.8-0.4,1.3-0.4c0.4,0,0.8,0.2,1.2,0.4
		c0.4,0.3,0.6,0.7,0.8,1.2c0.1,0.3,0.1,0.7,0.2,1c0,0.2,0.1,0.4,0.1,0.6c0,0.6,0,1.1-0.2,1.7c-0.2,0.6-0.6,1-1.1,1.3
		c0,0-0.1,0-0.1,0c-0.4,0-0.8,0.1-1.2,0.1c-0.3,0-0.5-0.1-0.8-0.3c-0.4-0.3-0.7-0.6-0.8-1.1c-0.1-0.5-0.2-0.9-0.2-1.4
		C171.4,70.5,171.3,70.4,171.3,70.3z M172.5,70.3c0,0.4,0,0.8,0.1,1.2c0,0.1,0,0.2,0.1,0.3c0.1,0.3,0.3,0.6,0.6,0.7
		c0.1,0,0.2,0,0.3,0c0.3-0.1,0.5-0.2,0.7-0.5c0.2-0.2,0.2-0.5,0.2-0.8c0.1-0.8,0.1-1.7-0.1-2.5c-0.1-0.3-0.2-0.5-0.4-0.6
		c-0.1-0.1-0.3-0.1-0.4-0.1c0,0,0,0-0.1,0c-0.2-0.1-0.5,0.1-0.5,0.3c-0.1,0.3-0.2,0.5-0.3,0.8C172.5,69.6,172.5,69.9,172.5,70.3z"/>
	<path class="st10" d="M168.4,73.4c-0.4,0-0.8,0-1.3,0c-0.2,0-0.4,0-0.5-0.1c-0.4-0.1-0.4-0.4-0.4-0.8c0-0.2,0.2-0.3,0.3-0.5
		c0.4-0.6,1.1-1,1.7-1.5c0.3-0.3,0.7-0.5,0.9-0.9c0.4-0.7,0.1-1.3-0.5-1.5c-0.4-0.2-0.9,0-1.1,0.5c-0.1,0.2-0.2,0.5-0.4,0.7
		c0,0.1-0.1,0.1-0.2,0.1c-0.1,0-0.3,0-0.4,0c-0.2,0-0.3-0.1-0.3-0.3c0-0.3,0-0.7,0.1-1c0.1-0.3,0.3-0.5,0.6-0.6
		c0.5-0.3,1-0.5,1.6-0.4c0.5,0,1,0.2,1.4,0.6c0.3,0.3,0.4,0.6,0.5,1c0.1,0.6-0.1,1.1-0.5,1.6c-0.2,0.2-0.4,0.3-0.6,0.5
		c-0.5,0.4-1,0.8-1.4,1.3c-0.1,0.1,0,0.1,0.1,0.2c0.1,0,0.1,0,0.2,0c0.6,0,1.2,0,1.7,0.1c0.2,0,0.4,0,0.5,0.3c0,0.2,0,0.4,0,0.5
		c0,0.1-0.2,0.2-0.3,0.2c-0.3,0-0.6,0.1-0.9,0.1C169.1,73.4,168.8,73.4,168.4,73.4C168.4,73.4,168.4,73.4,168.4,73.4z"/>
	<path class="st10" d="M167.8,82.6c0-0.6,0-1.3-0.1-1.9c0-0.2-0.1-0.3-0.3-0.3c-0.1,0-0.1,0-0.2,0c-0.1,0-0.3,0-0.3-0.2
		c0-0.2-0.1-0.4,0-0.5c0-0.1,0.1-0.1,0.2-0.1c0.2,0,0.3,0,0.5-0.1c0.1,0,0.1-0.1,0.1-0.2c0-0.2,0-0.4,0-0.7c0-0.3,0.2-0.4,0.4-0.5
		c0.2-0.1,0.6,0,0.6,0.2c0,0.1,0,0.3,0.1,0.4c0,0.1,0,0.2,0,0.3c0,0.2,0.1,0.3,0.4,0.3c0.6,0,1.3,0,1.9,0c0.4,0,0.7,0.3,0.7,0.7
		c0,0.2-0.1,0.3-0.2,0.4c-0.5,0.7-1.1,1.5-1.7,2.2c-0.3,0.4-0.5,0.7-0.8,1.1c-0.3,0.4-0.8,0.5-1.2,0.2c-0.1-0.1-0.2-0.2-0.2-0.4
		C167.8,83.4,167.7,83,167.8,82.6C167.8,82.6,167.8,82.6,167.8,82.6z M168.9,82.3C169,82.3,169,82.4,168.9,82.3
		c0.1,0,0.1-0.1,0.2-0.1c0.1-0.2,0.3-0.3,0.4-0.5c0.3-0.3,0.6-0.7,0.9-1c0-0.1,0.1-0.2,0-0.2c0,0-0.1-0.1-0.2-0.1
		c-0.4,0-0.8,0-1.1,0c-0.1,0-0.2,0.1-0.2,0.2c0,0.4,0,0.8,0,1.1C168.9,82,168.9,82.2,168.9,82.3z"/>
	<path class="st10" d="M172.8,81.2c0-0.8,0-1.6,0-2.4c0-0.4,0.3-0.8,0.6-0.7c0.1,0,0.3,0.1,0.4,0.2c0.1,0.1,0.1,0.2,0.1,0.3
		c0,1,0,1.9,0,2.9c0,0.8,0,1.5,0,2.3c0,0.3-0.3,0.5-0.5,0.5c-0.1,0-0.2,0-0.3,0c-0.2,0-0.3-0.2-0.4-0.3c0-0.1,0-0.2,0-0.3
		C172.8,82.8,172.8,82,172.8,81.2C172.8,81.2,172.8,81.2,172.8,81.2z"/>
	<path class="st10" d="M183.2,65.9c-0.5,0.1-1-0.2-1.5-0.3c-0.4-0.1-0.8-0.2-1.2-0.3c-0.1,0-0.2,0-0.3-0.1c0,0-0.1,0-0.1,0.1
		c0,0,0,0.1,0,0.1c0.3,0.4,0.6,0.8,0.8,1.1c0.1,0.2,0.3,0.3,0.3,0.5c0.1,0.2,0.1,0.4,0,0.6c0,0.2-0.3,0.2-0.6,0.2
		c-0.3,0-0.4-0.3-0.5-0.5c-0.4-0.6-0.9-1.2-1.3-1.8c-0.1-0.2-0.3-0.5-0.4-0.7c-0.1-0.4,0.1-0.7,0.5-0.7c0.5,0,1.1,0,1.6,0.2
		c0.4,0.1,0.8,0.2,1.2,0.3c0.3,0.1,0.6,0.2,1,0.1c0.4,0,0.8-0.2,1-0.6c0.2-0.3,0.1-0.6-0.1-0.9c-0.1-0.1-0.2-0.2-0.2-0.2
		c-0.2-0.2-0.4-0.2-0.6-0.2c-0.3,0-0.7,0-1,0c-0.1,0-0.2-0.1-0.2-0.2c-0.1-0.4,0-0.5,0.4-0.7c0.1,0,0.2-0.1,0.4-0.1
		c0.9-0.1,1.7,0.2,2.1,1c0.1,0.3,0.3,0.5,0.4,0.8c0.1,0.5,0.1,1-0.2,1.4C184.4,65.8,183.8,65.9,183.2,65.9z"/>
	<path class="st10" d="M156.7,64.3c0-0.6,0.2-1.1,0.6-1.5c0.3-0.3,0.6-0.5,1-0.6c0.5-0.1,1-0.1,1.4,0.2c0.2,0.1,0.3,0.3,0.4,0.5
		c0.1,0.1,0.1,0.3,0.2,0.4c0.1,0.1,0.1,0.1,0.2,0c0.3-0.2,0.7-0.2,1.1-0.2c0.5,0.1,0.9,0.4,1.2,0.8c0.3,0.4,0.3,0.8,0.3,1.2
		c0,0.6-0.3,1-0.6,1.4c-0.3,0.4-0.7,0.7-1.2,0.8c-0.4,0.1-0.8,0-1.2-0.1c-0.5-0.3-0.9-0.7-1-1.3c-0.1-0.3-0.1-0.3-0.4-0.2
		c-0.5,0.2-1,0.1-1.5-0.3c-0.3-0.2-0.4-0.6-0.4-1C156.7,64.5,156.7,64.4,156.7,64.3z M161.1,66.4c0.1-0.1,0.3-0.1,0.4-0.2
		c0.3-0.2,0.5-0.5,0.5-0.9c0-0.3-0.2-0.5-0.3-0.6c-0.2-0.2-0.5-0.2-0.8-0.3c-0.3-0.1-0.6,0-0.8,0.3c0,0-0.1,0.1-0.1,0.1
		c-0.2,0.2-0.2,0.7-0.1,0.9C160.2,66.1,160.5,66.3,161.1,66.4z M159.4,64c0-0.1-0.1-0.3-0.2-0.4c-0.1-0.2-0.3-0.4-0.5-0.4
		c-0.2,0-0.3,0-0.5,0c-0.4,0.1-0.5,0.5-0.6,0.8c0,0.6,0.7,1,1.2,0.7C159.1,64.6,159.4,64.4,159.4,64z"/>
	<path class="st10" d="M178.6,84.4c0.2-0.3,0.4-0.6,0.7-0.6c0.2-0.1,0.4-0.1,0.7-0.2c0.3-0.1,0.4-0.3,0.5-0.4
		c0.1-0.2,0.3-0.4,0.4-0.5c0.2-0.2,0.4-0.5,0.6-0.7c0.3-0.4,0.7-0.6,1.1-0.8c0.1,0,0.2,0,0.3,0.1c0.3,0.2,0.7,0.5,1,0.7
		c0.2,0.2,0.4,0.3,0.6,0.5c0.1,0.1,0.1,0.2,0.1,0.4c-0.2,0.5-0.6,0.6-1,0.7c-0.5,0.1-0.9,0.2-1.4,0.3c-0.4,0.1-0.8,0.2-1.1,0.2
		c-0.1,0-0.2,0-0.2,0.1c-0.2,0.2-0.4,0.4-0.7,0.6c-0.2,0.2-0.4,0.3-0.7,0.2c-0.1,0-0.1-0.1-0.1-0.2c0.1-0.3,0.1-0.3-0.2-0.3
		C179,84.4,178.8,84.4,178.6,84.4z M181.5,83.2c0.1,0,0.1,0,0.1,0c0.5-0.1,0.9-0.2,1.4-0.3c0,0,0.1,0,0.1-0.1c0,0,0-0.1-0.1-0.1
		c-0.2-0.1-0.4-0.3-0.5-0.4c-0.2-0.2-0.2-0.2-0.4,0.1c0,0-0.1,0.1-0.1,0.1c-0.2,0.2-0.3,0.4-0.5,0.7
		C181.5,83.1,181.5,83.2,181.5,83.2z"/>
	<path class="st10" d="M181.9,57.7c-0.3,0-0.5,0.1-0.8,0c-0.3,0-0.7-0.1-1-0.1c-0.5-0.1-1.1-0.1-1.6-0.2c-0.3-0.1-0.5-0.2-0.7-0.4
		c-0.2-0.2-0.2-0.6-0.1-0.8c0.1-0.1,0.1-0.2,0.2-0.3c0-0.1,0.1-0.2,0.1-0.2c-0.1-0.1-0.1-0.3-0.3-0.4c-0.3-0.2-0.7-0.4-1-0.4
		c-0.2,0-0.3,0-0.4,0.3c0,0.1-0.1,0.2-0.2,0.2c-0.3,0-0.5-0.1-0.7-0.3c-0.2-0.2-0.1-0.4,0.1-0.5c0.1,0,0.2-0.1,0.3-0.1
		c0.7,0,1.3,0.1,1.9,0.4c0.3,0.1,0.7,0.3,1,0.5c0.1,0.1,0.2,0.2,0.3,0.2c0.1,0.1,0.1,0.5,0,0.7c-0.1,0.1-0.1,0.2-0.2,0.2
		c-0.1,0.2-0.1,0.2,0.1,0.3c0.3,0.1,0.7,0.2,1,0.2c0.6,0,1.1,0.2,1.6,0.4C181.7,57.4,181.8,57.5,181.9,57.7
		C181.9,57.7,181.9,57.7,181.9,57.7z"/>
	<path class="st10" d="M176.8,57.2c-0.4,0.1-0.8,0.2-1.1-0.1c-0.2-0.2-0.4-0.4-0.6-0.5c-0.4-0.4-0.8-0.9-1.2-1.3
		c-0.2-0.2-0.4-0.5-0.6-0.8c0,0,0-0.1,0-0.1c0,0,0.1,0,0.1,0c0.4-0.1,0.8,0.1,1.1,0.4C175.2,55.6,176,56.4,176.8,57.2
		C176.8,57.2,176.8,57.2,176.8,57.2z"/>
	<path class="st10" d="M160,83.6c0,0-0.1-0.1-0.1-0.1c-0.2-0.3-0.5-0.6-0.7-0.9c-0.2-0.4,0-0.6,0.4-0.7c0.4,0,0.9,0.1,1.3,0.3
		c0.4,0.2,0.8,0.4,1.2,0.6c0.5,0.4,1,0.7,1.3,1.4c0.1,0.1,0.1,0.3,0.1,0.4c0,0.2-0.1,0.3-0.3,0.3c-0.4,0-0.8,0-1.2,0
		c-0.7-0.1-1.5-0.3-2.1-0.7c-0.5-0.2-1-0.4-1.4-0.8c-0.5-0.4-0.8-0.9-1.1-1.4c-0.1-0.2,0.1-0.4,0.3-0.4c0.3,0,0.6,0.1,0.9,0.3
		c0.2,0.2,0.2,0.4-0.1,0.5c-0.1,0.1-0.1,0.1,0,0.2c0.2,0.4,0.6,0.5,1,0.7C159.6,83.5,159.8,83.6,160,83.6
		C160,83.6,160,83.6,160,83.6z M160.6,82.8c0,0-0.1,0-0.1,0c-0.1,0-0.2,0.1-0.2,0.1c0,0,0,0.1,0.1,0.2c0.2,0.2,0.5,0.5,0.7,0.7
		c0.4,0.3,0.8,0.3,1.2,0.2c0.1,0,0.2-0.1,0.1-0.2c-0.2-0.2-0.4-0.4-0.6-0.6C161.4,82.9,161,82.8,160.6,82.8z"/>
	<path class="st10" d="M160.3,81.1c0.5,0,1,0.3,1.2,0.6c0,0.1,0,0.2,0,0.3c-0.1,0.1-0.2,0.1-0.3,0.1c-0.3-0.1-0.5-0.2-0.7-0.4
		C160.3,81.5,160.3,81.3,160.3,81.1z"/>
	<path class="st10" d="M164.8,57.4c-0.2,0-0.4,0-0.7,0c-0.1,0-0.3-0.1-0.3-0.2c-0.1-0.1-0.2-0.4-0.1-0.5c0.3-0.4,0.7-0.8,1.1-1.2
		c0.4-0.4,0.9-0.6,1.4-0.8c0.3-0.1,0.7-0.2,1-0.3c0.2,0,0.3-0.1,0.5-0.1c0.3,0,0.7,0,1,0.1c0.2,0,0.2,0.2,0.2,0.3
		c0,0.2-0.1,0.4-0.1,0.5c-0.2,0.4-0.5,0.8-0.8,1.1c-0.4,0.3-0.8,0.5-1.2,0.7C166.1,57.2,165.5,57.4,164.8,57.4z M165.4,56.8
		c0.2-0.1,0.4-0.1,0.6-0.2c0.5-0.2,1-0.5,1.3-1c0.1-0.2,0.3-0.4,0.4-0.6c0.1-0.1,0-0.3-0.1-0.3c-0.2,0-0.4,0-0.5,0
		c-0.3,0-0.5,0.2-0.8,0.4c-0.4,0.3-0.9,0.7-1.2,1.2C164.9,56.7,165,56.7,165.4,56.8z"/>
	<path class="st10" d="M165,54.8c-0.1,0.1-0.2,0.3-0.4,0.4c-0.4,0.3-0.8,0.6-1.2,0.9c-0.5,0.4-1,0.8-1.6,1.2
		c-0.5,0.3-0.9,0.6-1.5,0.7c-0.1,0-0.2,0-0.2,0c0-0.1,0-0.2,0.1-0.3c0.2-0.2,0.4-0.3,0.6-0.5c0.6-0.4,1.1-0.8,1.7-1.2
		c0.6-0.4,1.1-0.9,1.8-1.1C164.5,54.7,164.7,54.7,165,54.8z"/>
	<path class="st10" d="M153.6,72c0,0.1,0,0.2,0,0.4c0,0.3,0.2,0.5,0.4,0.7c0,0,0.1,0,0.2,0c0.1-0.1,0.2-0.2,0.1-0.3
		c0-0.1-0.1-0.1-0.1-0.2c-0.3-0.3-0.4-0.7-0.5-1.2c-0.1-0.3-0.1-0.5-0.1-0.8c0-0.2,0-0.5,0-0.7c0-0.3,0.1-0.5,0.3-0.6
		c0.1,0,0.2-0.1,0.2-0.1c0.1,0.1,0.3,0.2,0.4,0.4c0.3,0.4,0.5,0.9,0.6,1.4c0.2,0.6,0.2,1.3,0.1,1.9c-0.1,0.4-0.2,0.8-0.5,1.1
		c-0.1,0.2-0.4,0.2-0.6,0c-0.3-0.3-0.5-0.6-0.6-1c-0.2-0.5-0.3-1-0.3-1.6c0-0.1,0.1-0.3,0.2-0.4c0.1-0.1,0.1-0.1,0.2,0
		C153.6,71.4,153.7,71.7,153.6,72z M154.8,71.4c-0.1-0.6-0.1-0.8-0.4-1.1c-0.1-0.1-0.2-0.1-0.2,0c-0.2,0.3-0.2,0.6-0.1,0.9
		c0,0.1,0.1,0.3,0.1,0.4c0.1,0.1,0.2,0.2,0.3,0.3c0.1,0.1,0.2,0.1,0.3-0.1C154.8,71.6,154.8,71.5,154.8,71.4z"/>
	<path class="st10" d="M154.8,75.8c-0.1-0.4,0.1-0.7,0.2-1c0.3-0.6,0.6-1.2,0.9-1.9c0.1-0.1,0.2-0.1,0.2,0c0.1,0.1,0.1,0.3,0.1,0.4
		c0.1,0.4-0.1,0.8-0.2,1.1c-0.2,0.5-0.4,1.1-0.7,1.6c-0.1,0.1-0.1,0.3-0.3,0.3c-0.1,0-0.2-0.1-0.2-0.2
		C154.8,76,154.8,75.8,154.8,75.8z"/>
	<path class="st10" d="M187.9,74.1c0,0.8-0.2,1.5-0.5,2.2c-0.1,0.2-0.4,0.4-0.6,0.3c-0.1,0-0.2-0.2-0.3-0.4
		c-0.1-0.2-0.1-0.4-0.2-0.6c0-0.1-0.1-0.1-0.2-0.1c-0.3,0-0.4-0.1-0.5-0.3c-0.1-0.3-0.1-0.5-0.1-0.8c0-0.5,0-1,0.2-1.5
		c0.1-0.5,0.4-0.9,0.8-1.2c0.1-0.1,0.2-0.1,0.3,0.1c0.2,0.2,0.2,0.5,0.3,0.7c0,0.1,0.1,0.3,0.1,0.4c0,0.2,0.1,0.3,0.3,0.3
		c0.1,0,0.2,0.1,0.3,0.2C187.9,73.6,187.9,73.9,187.9,74.1z M186.2,74.5c0,0,0.1-0.1,0.1-0.1c0.4-0.4,0.5-1.1,0.2-1.5
		c-0.1-0.2-0.1-0.2-0.3,0C185.9,73.2,185.9,74,186.2,74.5z M186.8,75c0,0.2,0,0.3,0.2,0.5c0.1,0.1,0.2,0.1,0.3,0
		c0.1-0.2,0.2-0.4,0.1-0.6c0-0.2,0-0.3,0-0.5c0-0.1,0-0.1-0.1-0.2c-0.1,0-0.1,0-0.2,0.1C186.8,74.4,186.8,74.7,186.8,75z"/>
	<path class="st10" d="M188.7,72.9c-0.1,0.2-0.1,0.4-0.2,0.5c-0.1,0.2-0.3,0.1-0.3,0c-0.2-0.3-0.3-0.7-0.4-1c-0.3-0.7-0.5-1.3-0.8-2
		c-0.1-0.3,0-0.7,0.2-0.9c0,0,0.1,0,0.2,0c0.1,0.1,0.1,0.2,0.2,0.3c0.2,0.5,0.4,1.1,0.6,1.6c0.2,0.4,0.3,0.8,0.5,1.2
		C188.6,72.6,188.6,72.7,188.7,72.9C188.6,72.9,188.6,72.9,188.7,72.9z"/>
	<path class="st2" d="M172.5,70.3c0-0.3,0-0.7,0.1-1.1c0.1-0.3,0.2-0.6,0.3-0.8c0.1-0.2,0.3-0.3,0.5-0.3c0,0,0,0,0.1,0
		c0.1,0,0.3,0,0.4,0.1c0.2,0.2,0.4,0.4,0.4,0.6c0.2,0.8,0.2,1.7,0.1,2.5c0,0.3-0.1,0.6-0.2,0.8c-0.2,0.3-0.4,0.4-0.7,0.5
		c-0.1,0-0.2,0-0.3,0c-0.3-0.2-0.5-0.4-0.6-0.7c0-0.1-0.1-0.2-0.1-0.3C172.6,71.1,172.5,70.7,172.5,70.3z"/>
	<path class="st2" d="M168.9,82.3c0-0.2,0-0.3,0-0.5c0-0.4,0-0.8,0-1.1c0-0.1,0-0.2,0.2-0.2c0.4,0,0.8,0,1.1,0c0.1,0,0.2,0,0.2,0.1
		c0,0.1,0,0.2,0,0.2c-0.3,0.3-0.6,0.7-0.9,1c-0.1,0.2-0.3,0.3-0.4,0.5C169.1,82.3,169,82.3,168.9,82.3C169,82.4,169,82.3,168.9,82.3
		z"/>
	<path class="st2" d="M161.1,66.4c-0.5,0-0.9-0.3-1.2-0.7c-0.1-0.2-0.1-0.7,0.1-0.9c0,0,0.1-0.1,0.1-0.1c0.2-0.3,0.5-0.4,0.8-0.3
		c0.3,0.1,0.6,0.1,0.8,0.3c0.2,0.2,0.3,0.4,0.3,0.6c0,0.4-0.2,0.7-0.5,0.9C161.4,66.3,161.2,66.3,161.1,66.4z"/>
	<path class="st2" d="M159.4,64c0,0.4-0.3,0.6-0.5,0.8c-0.5,0.3-1.2-0.1-1.2-0.7c0-0.3,0.2-0.7,0.6-0.8c0.2,0,0.3-0.1,0.5,0
		c0.2,0.1,0.4,0.2,0.5,0.4C159.3,63.7,159.4,63.9,159.4,64z"/>
	<path class="st2" d="M181.5,83.2c0-0.1,0-0.1,0-0.2c0.2-0.2,0.3-0.4,0.5-0.7c0,0,0.1-0.1,0.1-0.1c0.2-0.2,0.2-0.2,0.4-0.1
		c0.2,0.1,0.4,0.3,0.5,0.4c0,0,0.1,0.1,0.1,0.1c0,0-0.1,0.1-0.1,0.1c-0.5,0.1-0.9,0.2-1.4,0.3C181.6,83.2,181.6,83.2,181.5,83.2z"/>
	<path class="st2" d="M160.6,82.8c0.4,0,0.8,0.2,1.2,0.4c0.2,0.2,0.4,0.4,0.6,0.6c0.1,0.1,0,0.2-0.1,0.2c-0.4,0.1-0.8,0.1-1.2-0.2
		c-0.3-0.2-0.5-0.5-0.7-0.7c0,0-0.1-0.2-0.1-0.2c0-0.1,0.1-0.1,0.2-0.1C160.5,82.8,160.6,82.8,160.6,82.8z"/>
	<path class="st2" d="M165.4,56.8c-0.5,0-0.5-0.1-0.3-0.5c0.3-0.5,0.7-0.9,1.2-1.2c0.2-0.2,0.5-0.4,0.8-0.4c0.2,0,0.4,0,0.5,0
		c0.1,0,0.2,0.2,0.1,0.3c-0.1,0.2-0.3,0.4-0.4,0.6c-0.3,0.5-0.8,0.8-1.3,1C165.9,56.7,165.7,56.7,165.4,56.8z"/>
	<path class="st2" d="M154.8,71.4c0,0.1,0,0.2-0.1,0.4c0,0.2-0.1,0.2-0.3,0.1c-0.1-0.1-0.2-0.2-0.3-0.3c-0.1-0.1-0.1-0.2-0.1-0.4
		c0-0.3,0-0.6,0.1-0.9c0.1-0.1,0.1-0.1,0.2,0C154.8,70.6,154.8,70.8,154.8,71.4z"/>
	<path class="st2" d="M186.2,74.5c-0.4-0.5-0.4-1.3,0-1.7c0.1-0.1,0.2-0.1,0.3,0c0.3,0.5,0.2,1.1-0.2,1.5
		C186.3,74.4,186.3,74.4,186.2,74.5z"/>
	<path class="st2" d="M186.8,75c0-0.3,0-0.6,0.3-0.8c0,0,0.1-0.1,0.2-0.1c0,0,0.1,0.1,0.1,0.2c0,0.2,0,0.3,0,0.5
		c0,0.2,0,0.4-0.1,0.6c-0.1,0.1-0.2,0.1-0.3,0C186.8,75.3,186.8,75.1,186.8,75z"/>
	<g>
		<path class="st10" d="M190.8,64.7c0,1.4,0,2.8,0,4.2c0,3.9,0,7.9,0,11.8c0,0.7-0.2,1.3-0.7,1.9c-0.1,0.1-0.3,0.2-0.5,0.3
			c-0.6,0.3-1.2,0.7-1.7,1c-1,0.6-2,1.2-3,1.7c-0.8,0.4-1.5,0.9-2.3,1.3c-0.9,0.5-1.9,1.1-2.8,1.6c-0.8,0.5-1.6,0.9-2.5,1.4
			c-1,0.6-2.1,1.2-3.1,1.7c-0.7,0.4-1.3,0.8-2,1.1c-0.7,0.4-1.5,0.4-2.3,0.1c-0.7-0.3-1.3-0.7-1.9-1c-0.8-0.4-1.5-0.9-2.3-1.3
			c-0.9-0.5-1.8-1-2.8-1.6c-0.8-0.4-1.5-0.9-2.3-1.3c-0.5-0.3-1-0.5-1.4-0.8c-0.5-0.3-1.1-0.6-1.6-0.9c-0.5-0.3-0.9-0.5-1.4-0.8
			c-0.8-0.5-1.6-0.9-2.4-1.4c-0.5-0.3-1-0.6-1.5-0.9c-0.5-0.3-0.8-0.7-1-1.2c-0.1-0.3-0.1-0.6-0.1-0.9c0-1.7,0-3.5,0-5.2
			c0-4.9,0-9.7,0-14.6c0-0.7,0.3-1.2,0.6-1.7c0.1-0.1,0.2-0.2,0.4-0.3c0.6-0.4,1.2-0.8,1.9-1.1c1.1-0.6,2.1-1.2,3.2-1.8
			c0.9-0.5,1.7-1,2.6-1.5c1.1-0.6,2.1-1.2,3.2-1.8c0.6-0.3,1.1-0.6,1.7-1c0.4-0.2,0.8-0.5,1.3-0.7c0.6-0.4,1.3-0.7,1.9-1.1
			c0.6-0.3,1.3-0.7,1.9-1c0.5-0.2,1-0.3,1.5-0.3c0.4,0.1,0.9,0.2,1.3,0.4c0.3,0.2,0.6,0.3,0.8,0.5c0.7,0.4,1.4,0.8,2.1,1.2
			c0.8,0.5,1.6,0.9,2.5,1.4c0.9,0.5,1.8,1,2.7,1.5c0.8,0.4,1.6,0.9,2.3,1.3c0.8,0.4,1.5,0.9,2.3,1.3c0.5,0.3,1,0.6,1.6,0.9
			c0.7,0.4,1.4,0.8,2.1,1.2c0.3,0.2,0.6,0.3,0.8,0.5c0.5,0.3,0.8,0.8,1,1.4c0,0.1,0,0.2,0,0.3C190.7,62.1,190.7,63.4,190.8,64.7
			C190.7,64.7,190.7,64.7,190.8,64.7z M181.6,75.4c-0.1-0.2-0.2-0.3-0.3-0.5c-0.3-0.4-0.5-0.8-0.8-1.2c-0.3-0.5-0.7-1-1-1.5
			c-0.3-0.5-0.7-1-1-1.5c-0.4-0.6-0.9-1.3-1.3-1.9c-0.4-0.6-0.8-1.1-1.1-1.7c-0.4-0.6-0.9-1.3-1.3-1.9c-0.5-0.7-0.9-1.3-1.4-2
			c-0.3-0.5-0.7-1-1-1.5c-0.4-0.6-0.8-1.2-1.2-1.8c-0.1-0.1-0.1-0.1-0.2,0c-0.1,0.2-0.3,0.4-0.4,0.6c-0.4,0.6-0.9,1.3-1.3,1.9
			c-0.5,0.7-1,1.5-1.5,2.2c-0.4,0.6-0.8,1.2-1.2,1.8c-0.5,0.7-1,1.5-1.5,2.2c-0.4,0.6-0.9,1.3-1.3,1.9c-0.4,0.6-0.8,1.2-1.2,1.8
			c-0.4,0.6-0.8,1.2-1.3,1.8c-0.3,0.4-0.5,0.8-0.8,1.2c0,0.1-0.1,0.2-0.1,0.2c0,0.1,0.1,0.1,0.2,0.1c0.1,0,0.3,0,0.4,0
			c4.7,0,9.3-0.1,14-0.1c2.1,0,4.2,0,6.4,0C181.5,75.5,181.5,75.5,181.6,75.4z M171,90.7c0.1-0.1,0.1-0.1,0.2-0.2
			c0.2-0.2,0.4-0.5,0.6-0.7c0.4-0.5,0.8-1,1.2-1.5c0.4-0.5,0.8-1,1.2-1.6c0.3-0.4,0.7-0.9,1-1.3c0.6-0.8,1.2-1.6,1.8-2.3
			c0.4-0.5,0.8-0.9,1.1-1.4c0.5-0.7,1-1.3,1.5-2c0.3-0.3,0.5-0.6,0.7-0.9c0.4-0.5,0.7-0.9,1.1-1.4c0.1-0.1,0.2-0.2,0.2-0.4
			c-0.1-0.2-0.3-0.1-0.4-0.1c-6.8,0-13.6,0-20.4,0c-0.1,0-0.2,0-0.2,0c-0.1,0-0.2,0.1-0.1,0.2c0,0.1,0,0.1,0.1,0.2
			c0.2,0.2,0.3,0.5,0.5,0.7c0.4,0.5,0.7,0.9,1.1,1.4c0.4,0.5,0.8,1,1.2,1.6c0.3,0.4,0.6,0.7,0.9,1.1c0.4,0.5,0.7,1,1.1,1.5
			c0.3,0.4,0.6,0.7,0.8,1.1c0.4,0.5,0.8,1,1.1,1.5c0.4,0.5,0.8,0.9,1.1,1.4c0.4,0.5,0.8,1,1.2,1.6c0.3,0.4,0.6,0.8,0.9,1.2
			C170.6,90.3,170.8,90.5,171,90.7z M188.4,61.2c-0.1,0-0.1-0.1-0.1-0.1c-0.1,0-0.3-0.1-0.4-0.1c-0.5-0.1-1.1-0.1-1.6-0.2
			c-0.7-0.1-1.3-0.1-2-0.2c-0.7-0.1-1.5-0.1-2.2-0.2c-0.6-0.1-1.2-0.1-1.8-0.2c-0.3,0-0.5-0.1-0.8-0.1c-0.5-0.1-1.1-0.1-1.6-0.2
			c-0.4,0-0.7-0.1-1.1-0.1c-0.8-0.1-1.6-0.2-2.4-0.3c-0.6-0.1-1.2-0.1-1.9-0.2c0,0-0.1,0-0.1,0c0,0,0,0.1,0,0.1
			c0.4,0.6,0.8,1.2,1.2,1.7c0.5,0.7,0.9,1.3,1.4,2c0.4,0.7,0.9,1.3,1.3,2c0.6,0.8,1.1,1.6,1.7,2.4c0.7,1,1.3,2,2,3
			c0.4,0.6,0.8,1.1,1.2,1.7c0.5,0.7,1,1.5,1.5,2.2c0.1,0.1,0.1,0.1,0.2,0c0,0,0.1-0.1,0.1-0.2c0.2-0.5,0.4-1,0.6-1.5
			c0.1-0.4,0.3-0.8,0.4-1.2c0.2-0.6,0.4-1.1,0.7-1.7c0.2-0.5,0.4-0.9,0.6-1.3c0.3-0.7,0.5-1.3,0.8-2c0.2-0.7,0.5-1.3,0.7-2
			c0.4-1,0.9-2.1,1.3-3.1C188.3,61.6,188.4,61.4,188.4,61.2z M169.4,59.4c-0.1,0-0.2,0-0.2,0c-0.3,0-0.6,0.1-0.9,0.1
			c-0.7,0.1-1.4,0.1-2.1,0.2c-0.3,0-0.7,0.1-1,0.1c-0.6,0.1-1.3,0.1-1.9,0.2c-0.3,0-0.7,0.1-1,0.1c-0.6,0.1-1.2,0.1-1.8,0.2
			c-0.4,0-0.7,0.1-1.1,0.1c-0.6,0.1-1.1,0.1-1.7,0.2c-0.4,0-0.8,0.1-1.2,0.1c-0.2,0-0.5,0.1-0.7,0.1c-0.4,0.1-0.7,0.1-1,0.2
			c-0.4,0.1-0.8,0.1-1.2,0.2c-0.1,0-0.2,0.1-0.1,0.2c0.2,0.5,0.4,1.1,0.7,1.6c0.3,0.7,0.6,1.4,0.9,2.1c0.5,1.3,1.1,2.7,1.6,4
			c0.4,0.9,0.7,1.8,1.1,2.7c0.3,0.8,0.6,1.5,0.9,2.3c0.1,0.2,0.2,0.4,0.2,0.6c0.1-0.1,0.1-0.1,0.1-0.2c0.2-0.3,0.4-0.5,0.6-0.8
			c0.3-0.5,0.7-0.9,1-1.4c0.4-0.6,0.9-1.2,1.3-1.8c0.4-0.6,0.7-1.1,1.1-1.7c0.2-0.3,0.4-0.6,0.6-0.9c0.4-0.4,0.6-0.9,0.9-1.3
			c0.1-0.2,0.2-0.4,0.4-0.6c0.2-0.3,0.4-0.5,0.6-0.8c0.3-0.4,0.5-0.7,0.8-1.1c0.4-0.5,0.7-1,1.1-1.5c0.4-0.6,0.9-1.3,1.3-1.9
			C169,60.2,169.3,59.8,169.4,59.4z M173.1,90.3c0.1,0,0.1,0,0.2,0c0.3-0.2,0.7-0.3,1-0.5c0.7-0.4,1.3-0.8,2-1.2
			c0.7-0.4,1.3-0.8,2-1.2c0.8-0.5,1.6-0.9,2.5-1.3c0.5-0.3,1-0.5,1.4-0.8c0.9-0.5,1.8-1.1,2.7-1.6c0.5-0.3,0.9-0.6,1.4-0.8
			c0.7-0.4,1.4-0.7,2.1-1.2c0.1-0.1,0.1-0.1,0-0.2c-0.3-0.3-0.6-0.5-0.9-0.8c-0.6-0.5-1.2-1-1.8-1.5c-0.7-0.6-1.4-1.2-2.1-1.8
			c-0.2-0.2-0.2-0.2-0.4,0c0,0-0.1,0.1-0.1,0.1c-0.3,0.4-0.6,0.8-0.9,1.1c-0.4,0.5-0.8,1.1-1.2,1.6c-0.3,0.4-0.6,0.8-0.9,1.2
			c-0.4,0.5-0.7,0.9-1,1.4c-0.5,0.6-0.9,1.2-1.4,1.8c-0.5,0.6-0.9,1.2-1.4,1.8c-0.3,0.4-0.7,0.9-1,1.3c-0.5,0.6-0.9,1.2-1.4,1.8
			C173.4,89.9,173.2,90.1,173.1,90.3z M187.1,59.6C187.1,59.6,187.1,59.5,187.1,59.6c0-0.1-0.1-0.1-0.1-0.2c-0.9-0.5-1.7-1-2.6-1.5
			c-0.9-0.5-1.8-1-2.7-1.5c-0.9-0.5-1.7-1-2.6-1.5c-0.9-0.5-1.9-1.1-2.8-1.6c-0.8-0.5-1.6-0.9-2.4-1.4c-0.7-0.4-1.4-0.8-2.1-1.2
			c-0.2-0.1-0.2-0.1-0.2,0.1c0,2.2,0,4.4,0,6.7c0,0.3,0.1,0.4,0.3,0.4c0.3,0,0.5,0.1,0.8,0.1c0.6,0.1,1.2,0.1,1.8,0.2
			c0.8,0.1,1.6,0.2,2.4,0.3c0.6,0.1,1.1,0.1,1.7,0.2c0.8,0.1,1.6,0.2,2.4,0.3c0.7,0.1,1.3,0.1,2,0.2c0.6,0.1,1.2,0.1,1.8,0.2
			c0.3,0,0.6,0.1,0.8,0.1C186.1,59.5,186.6,59.5,187.1,59.6z M168.8,90.3C168.8,90.3,168.8,90.3,168.8,90.3
			c-0.1-0.2-0.2-0.4-0.3-0.5c-0.4-0.5-0.8-1-1.1-1.5c-0.4-0.5-0.7-0.9-1.1-1.4c-0.4-0.5-0.8-1-1.1-1.5c-0.4-0.5-0.9-1.1-1.3-1.6
			c-0.5-0.6-1-1.3-1.5-1.9c-0.3-0.3-0.5-0.7-0.8-1c-0.4-0.6-0.9-1.2-1.3-1.8c-0.3-0.4-0.6-0.8-1-1.3c-0.1-0.2-0.2-0.3-0.4-0.4
			c-0.1-0.1-0.1-0.1-0.2,0c-0.5,0.4-1.1,0.9-1.6,1.3c-0.4,0.3-0.7,0.6-1.1,0.9c-0.8,0.6-1.5,1.2-2.3,1.9c-0.2,0.2-0.2,0.3,0,0.4
			c0.7,0.4,1.3,0.8,2,1.2c0.7,0.4,1.4,0.8,2.2,1.2c1,0.5,1.9,1.1,2.9,1.6c0.9,0.5,1.8,1,2.7,1.5c0.9,0.5,1.8,1,2.8,1.6
			c0.8,0.4,1.5,0.9,2.3,1.3C168.6,90.3,168.7,90.3,168.8,90.3z M170.3,55.9c0-1.1-0.1-1.9-0.1-2.8c0-0.7,0-1.5,0-2.2
			c0-0.2,0-0.2-0.2-0.1c-0.4,0.2-0.8,0.4-1.1,0.7c-0.8,0.4-1.5,0.9-2.3,1.3c-1,0.6-2,1.1-3.1,1.7c-0.9,0.5-1.8,1-2.7,1.6
			c-0.8,0.4-1.5,0.9-2.3,1.3c-0.9,0.5-1.7,1-2.6,1.5c-0.4,0.2-0.7,0.4-1.1,0.6c0,0-0.1,0.1-0.1,0.1c0,0,0.1,0,0.1,0
			c0.1,0,0.2,0,0.3,0c0.6-0.1,1.2-0.1,1.8-0.2c0.3,0,0.5-0.1,0.8-0.1c0.8-0.1,1.6-0.2,2.4-0.3c0.3,0,0.7-0.1,1-0.1
			c0.6-0.1,1.1-0.1,1.7-0.2c0.3,0,0.7-0.1,1-0.1c0.6-0.1,1.1-0.1,1.7-0.2c0.6-0.1,1.1-0.1,1.7-0.2c0.6-0.1,1.3-0.1,1.9-0.2
			c0.3,0,0.5-0.1,0.8-0.1c0.3,0,0.3-0.1,0.3-0.4C170.3,56.9,170.3,56.3,170.3,55.9z M152.8,80.3C152.9,80.3,152.9,80.3,152.8,80.3
			c0.3-0.1,0.5-0.2,0.6-0.3c0.4-0.3,0.8-0.7,1.2-1.1c0.6-0.5,1.2-1.1,1.9-1.6c0.5-0.4,1-0.8,1.5-1.2c0,0,0.1-0.1,0-0.1
			c-0.1-0.2-0.2-0.4-0.3-0.7c-0.2-0.6-0.5-1.1-0.7-1.7c-0.3-0.7-0.6-1.4-0.9-2.1c-0.3-0.8-0.7-1.7-1-2.5c-0.4-0.9-0.8-1.9-1.1-2.9
			c-0.4-0.9-0.7-1.8-1.1-2.7c0-0.1-0.1-0.2-0.1-0.3c0,0-0.1,0-0.1,0C152.8,68.8,152.8,74.5,152.8,80.3z M189.1,68.6
			C189.1,68.6,189.1,68.6,189.1,68.6c0-1.7,0-3.5,0-5.2c0,0,0-0.1,0-0.1c0,0,0-0.1-0.1-0.1c0,0-0.1,0-0.1,0c0,0.1-0.1,0.2-0.1,0.3
			c-0.3,0.8-0.7,1.7-1,2.5c-0.5,1.2-1,2.5-1.5,3.7c-0.3,0.6-0.5,1.2-0.7,1.8c-0.2,0.5-0.4,0.9-0.6,1.4c-0.2,0.5-0.4,1.1-0.6,1.6
			c-0.2,0.4-0.3,0.8-0.5,1.2c0,0.1,0,0.1,0.1,0.2c0.6,0.5,1.2,1,1.8,1.5c0.3,0.3,0.7,0.6,1,0.9c0.5,0.4,1,0.8,1.5,1.3
			c0.2,0.2,0.5,0.4,0.7,0.5c0.1,0.1,0.2,0,0.2-0.1c0,0,0-0.1,0-0.1c0-2.1,0-4.2-0.1-6.2C189.1,72.1,189.1,70.4,189.1,68.6z"/>
		<path class="st4" d="M171,93.4c-0.4,0-0.8-0.1-1.2-0.2c-0.5-0.2-1-0.5-1.4-0.7c-0.2-0.1-0.4-0.2-0.5-0.3c-0.5-0.3-1.1-0.6-1.6-0.9
			l-3.5-2c-0.4-0.2-0.8-0.5-1.2-0.7l-1.1-0.6c-0.3-0.1-0.5-0.3-0.8-0.4l-6.5-3.7c-0.4-0.2-0.7-0.4-1.1-0.6c-0.6-0.4-1-0.8-1.2-1.4
			c-0.1-0.4-0.2-0.7-0.2-1l0-9.4c0-3.5,0-6.9,0-10.4c0-0.7,0.2-1.3,0.7-1.9c0.1-0.2,0.3-0.3,0.5-0.4l0.2-0.1c0.6-0.4,1.1-0.7,1.7-1
			c0.7-0.4,1.5-0.8,2.2-1.3l7.6-4.3c0.3-0.2,0.6-0.3,0.9-0.5c0.2-0.1,0.5-0.3,0.7-0.4l1.4-0.8c0.4-0.2,0.8-0.4,1.2-0.7
			c0.6-0.4,1.3-0.7,1.9-1c0.5-0.3,1.1-0.4,1.7-0.3c0.4,0.1,0.9,0.2,1.4,0.5c0.2,0.1,0.3,0.2,0.5,0.3c0.1,0.1,0.2,0.1,0.3,0.2l12,6.8
			c0.2,0.1,0.5,0.3,0.7,0.4c0.3,0.2,0.6,0.3,0.8,0.5c0.7,0.4,1.4,0.8,2.1,1.2c0.3,0.2,0.6,0.3,0.8,0.5c0.5,0.4,0.9,0.9,1.1,1.6
			c0,0.1,0,0.3,0,0.4l0,3.7l0,0.4l0,1.4c0,0.9,0,1.8,0,2.8l0,3.9c0,2.6,0,5.3,0,7.9c0,0.8-0.3,1.5-0.8,2.1c-0.1,0.1-0.3,0.2-0.5,0.3
			l-3.1,1.8c-0.6,0.3-1.1,0.6-1.7,1c-0.4,0.2-0.8,0.5-1.3,0.7l-4.1,2.4c-0.7,0.4-1.4,0.8-2.2,1.2l-3.1,1.7c-0.2,0.1-0.4,0.2-0.6,0.3
			c-0.5,0.3-0.9,0.6-1.4,0.8C172,93.3,171.5,93.4,171,93.4z M170.9,49.1c-0.3,0-0.7,0.1-1,0.2c-0.6,0.3-1.3,0.7-1.9,1
			c-0.4,0.2-0.8,0.4-1.1,0.7l-1.4,0.8c-0.2,0.1-0.5,0.2-0.7,0.4c-0.3,0.2-0.6,0.3-0.9,0.5l-7.6,4.3c-0.7,0.4-1.5,0.8-2.2,1.3
			c-0.6,0.3-1.1,0.7-1.7,1l-0.1,0.1c-0.1,0.1-0.2,0.1-0.3,0.2c-0.4,0.5-0.6,1-0.6,1.5c0,3.5,0,6.9,0,10.4l0,9.4c0,0.3,0,0.5,0.1,0.7
			c0.2,0.4,0.4,0.7,0.9,1c0.3,0.2,0.7,0.4,1,0.6l6.5,3.7c0.3,0.1,0.5,0.3,0.8,0.4L162,88c0.4,0.2,0.8,0.5,1.2,0.7l3.5,2
			c0.5,0.3,1,0.6,1.6,0.9c0.2,0.1,0.4,0.2,0.6,0.3c0.4,0.3,0.8,0.5,1.3,0.7c0.7,0.3,1.3,0.2,2-0.1c0.5-0.2,0.9-0.5,1.4-0.8
			c0.2-0.1,0.4-0.2,0.6-0.4l3.1-1.7c0.7-0.4,1.4-0.8,2.2-1.2l4.1-2.4c0.4-0.2,0.8-0.5,1.3-0.7c0.6-0.3,1.1-0.6,1.7-1l3.1-1.8
			c0.1-0.1,0.2-0.1,0.3-0.2c0.4-0.5,0.6-1,0.6-1.6c0-2.6,0-5.3,0-7.9l0-3.9c0-0.9,0-1.9,0-2.8l0-1h0l0-4.4c0,0,0-0.1,0-0.1
			c-0.2-0.5-0.4-0.9-0.8-1.2c-0.3-0.2-0.5-0.3-0.8-0.5c-0.7-0.4-1.4-0.8-2-1.2c-0.3-0.2-0.6-0.3-0.8-0.5c-0.2-0.1-0.5-0.3-0.7-0.4
			l-12-6.8c-0.1-0.1-0.2-0.1-0.3-0.1c-0.2-0.1-0.4-0.2-0.6-0.4c-0.3-0.2-0.7-0.3-1.1-0.4C171.1,49.1,171,49.1,170.9,49.1z M171,91.2
			l-0.5-0.5c-0.1-0.1-0.2-0.3-0.3-0.4c-0.3-0.4-0.6-0.8-0.9-1.2l-0.5-0.6c-0.2-0.3-0.5-0.6-0.7-1c-0.2-0.2-0.4-0.5-0.5-0.7
			c-0.2-0.2-0.4-0.5-0.6-0.7c-0.2-0.3-0.4-0.5-0.6-0.8c-0.2-0.2-0.4-0.5-0.5-0.7c-0.1-0.2-0.3-0.4-0.4-0.6l-4.7-6
			c-0.2-0.2-0.4-0.5-0.5-0.7c-0.1-0.1-0.1-0.2-0.1-0.2c-0.1-0.2,0-0.4,0-0.4c0-0.1,0.2-0.2,0.4-0.2c0.1,0,0.1,0,0.2,0l20.4,0
			c0.2,0,0.5-0.1,0.7,0.3c0.2,0.3-0.1,0.6-0.2,0.7c-0.4,0.5-0.7,1-1.1,1.4c-0.2,0.3-0.5,0.6-0.8,1c-0.2,0.2-0.3,0.4-0.5,0.6
			c-0.4,0.4-0.7,0.8-1,1.3c-0.2,0.3-0.5,0.7-0.7,1c-0.1,0.2-0.2,0.3-0.4,0.5c-0.5,0.7-1,1.4-1.6,2l-0.6,0.9
			c-0.2,0.3-0.4,0.5-0.6,0.7c-0.4,0.5-0.8,1-1.2,1.6L171,91.2z M170.7,90.5l0.3,0.2L170.7,90.5z M160.9,77.2
			c0.1,0.2,0.2,0.3,0.3,0.4l4.7,6c0.2,0.2,0.3,0.4,0.4,0.6c0.2,0.2,0.4,0.5,0.5,0.7c0.2,0.3,0.4,0.5,0.6,0.8
			c0.2,0.2,0.4,0.5,0.6,0.7c0.2,0.2,0.4,0.5,0.5,0.7c0.2,0.3,0.5,0.6,0.7,1l0.5,0.6c0.3,0.4,0.6,0.8,0.9,1.2
			c0.1,0.1,0.1,0.1,0.2,0.2l1.7-2.1c0.4-0.5,0.8-1,1.2-1.6c0.2-0.2,0.4-0.5,0.6-0.7l0.7-0.9c0.5-0.7,1-1.4,1.6-2
			c0.1-0.2,0.2-0.3,0.4-0.5c0.2-0.3,0.5-0.6,0.7-0.9c0.3-0.5,0.7-0.9,1.1-1.4c0.2-0.2,0.3-0.4,0.5-0.6c0.3-0.3,0.5-0.6,0.7-0.9
			c0.3-0.4,0.7-0.9,1-1.3L160.9,77.2z M169,90.7l-0.4-0.1c-0.1,0-0.2-0.1-0.2-0.1l-14.8-8.4c-0.2-0.1-0.3-0.3-0.3-0.5
			c0-0.2,0.1-0.4,0.3-0.5l2.3-1.9c0.2-0.2,0.4-0.3,0.6-0.5l1.1-0.9c0.3-0.3,0.6-0.5,1-0.8c0.2-0.2,0.5-0.2,0.7,0.1
			c0.1,0.1,0.3,0.3,0.4,0.5c0.3,0.4,0.6,0.8,1,1.3l1.3,1.8c0.1,0.2,0.3,0.3,0.4,0.5l2.5,3.2c0.2,0.3,0.4,0.6,0.7,0.9l3.9,5.1
			L169,90.7z M168.8,90.3L168.8,90.3L168.8,90.3z M154.1,81.6l13.6,7.7l-2.8-3.7c-0.2-0.3-0.4-0.6-0.7-0.8l-2.5-3.2
			c-0.1-0.2-0.3-0.4-0.4-0.5l-1.3-1.8c-0.3-0.4-0.6-0.8-1-1.3c-0.1-0.1-0.2-0.2-0.2-0.3c-0.3,0.2-0.5,0.5-0.8,0.7l-1.1,0.9
			c-0.2,0.2-0.4,0.3-0.6,0.5L154.1,81.6z M172.4,90.7l0.9-1.2l4.5-5.8c0.2-0.3,0.5-0.6,0.7-1c0.2-0.2,0.4-0.5,0.5-0.7
			c0.2-0.2,0.3-0.5,0.5-0.7c0.2-0.2,0.3-0.4,0.5-0.6c0.1-0.2,0.3-0.4,0.4-0.6l2.1-2.8l0.4,0.1l-0.3-0.2c0.1-0.1,0.2-0.3,0.4-0.3
			c0.2,0,0.4,0.1,0.5,0.2c0.7,0.6,1.4,1.2,2.1,1.8l2,1.7c0.2,0.2,0.5,0.4,0.7,0.6c0.1,0.1,0.2,0.2,0.2,0.4c0,0.2-0.2,0.3-0.2,0.4
			c-0.6,0.5-1.2,0.8-1.9,1.1l-0.3,0.1c-0.4,0.2-0.7,0.4-1.1,0.6l-1.4,0.8c-0.5,0.3-1.1,0.6-1.6,1c-0.4,0.2-0.7,0.4-1.1,0.6l-1.3,0.7
			c-0.5,0.3-1,0.5-1.5,0.8c-0.7,0.4-1.4,0.8-2,1.2c-0.3,0.2-0.6,0.4-0.9,0.6c-0.3,0.2-0.7,0.4-1,0.6c-0.2,0.1-0.5,0.3-0.7,0.4
			l-0.3,0.2L172.4,90.7z M183.2,77.7l-2.2,2.8c-0.1,0.2-0.3,0.4-0.4,0.6c-0.2,0.2-0.3,0.4-0.5,0.6c-0.2,0.2-0.3,0.4-0.5,0.7
			c-0.2,0.2-0.4,0.5-0.5,0.7c-0.2,0.3-0.5,0.6-0.8,1l-4.1,5.4c0.3-0.2,0.5-0.3,0.8-0.5c0.3-0.2,0.6-0.4,0.9-0.6
			c0.7-0.4,1.4-0.8,2-1.2c0.5-0.3,1-0.5,1.5-0.8l1.3-0.7c0.4-0.2,0.7-0.4,1.1-0.6c0.5-0.3,1.1-0.6,1.6-0.9l1.4-0.8
			c0.4-0.2,0.8-0.5,1.2-0.7l0.3-0.1c0.5-0.3,1.1-0.5,1.6-0.9c-0.2-0.2-0.4-0.3-0.5-0.5l-2-1.7C184.6,78.9,183.9,78.3,183.2,77.7z
			 M152.9,80.7l-0.3-0.2l-0.1-0.2l-0.1-17.3l0.3-0.1l0.3-0.1l0.2,0.3c0,0.1,0.1,0.2,0.1,0.2l4.8,11.9c0.1,0.2,0.2,0.5,0.3,0.7
			c0.1,0.2,0,0.4-0.2,0.5c-0.2,0.2-0.4,0.4-0.7,0.5c-0.3,0.2-0.5,0.4-0.8,0.6c-0.6,0.5-1.2,1-1.9,1.6c-0.2,0.2-0.4,0.3-0.5,0.5
			c-0.2,0.2-0.5,0.4-0.7,0.6c-0.1,0.1-0.3,0.2-0.4,0.3L152.9,80.7z M153.1,64.7l0.1,15c0,0,0,0,0.1-0.1c0.2-0.2,0.5-0.4,0.7-0.6
			c0.2-0.2,0.4-0.3,0.5-0.5c0.6-0.5,1.2-1.1,1.9-1.6c0.3-0.2,0.5-0.4,0.8-0.6c0.2-0.1,0.4-0.3,0.5-0.4c-0.1-0.2-0.1-0.3-0.2-0.5
			L153.1,64.7z M157.8,75.8C157.8,75.8,157.8,75.8,157.8,75.8C157.8,75.8,157.8,75.8,157.8,75.8z M189.1,80.6c-0.1,0-0.2,0-0.3-0.1
			c-0.2-0.2-0.5-0.4-0.7-0.6c-0.5-0.4-1-0.8-1.5-1.3l-1.2-1c-0.5-0.4-1.1-0.9-1.6-1.3c-0.3-0.2-0.2-0.5-0.2-0.6
			c0.1-0.3,0.2-0.5,0.3-0.8l2.7-6.7c0.3-0.7,0.6-1.4,0.9-2.1c0.2-0.5,0.4-1.1,0.7-1.6l0.4-0.9c0-0.1,0.1-0.2,0.1-0.3l0.1-0.3
			l0.4,0.1c0.1,0,0.2,0.1,0.3,0.3l0,0.1l0,0.2l0,6.8c0,1.2,0,2.4,0,3.5c0,1.5,0,2.9,0,4.4l0,1.9c0,0.1,0,0.1,0,0.2
			c0,0.3-0.2,0.4-0.3,0.4C189.2,80.6,189.2,80.6,189.1,80.6z M188.9,80C188.9,80,188.8,80.1,188.9,80l0.3,0L188.9,80z M184.3,75.9
			c0.5,0.4,1,0.8,1.5,1.3l1.2,1c0.5,0.4,1,0.8,1.5,1.3c0.1,0.1,0.2,0.2,0.3,0.2l0-1.5c0-1.5,0-2.9,0-4.4c0-1.2,0-2.4,0-3.6l0-1.2h0
			v-4.2c-0.2,0.5-0.4,1-0.6,1.5c-0.3,0.7-0.6,1.4-0.9,2.1l-2.7,6.7C184.5,75.4,184.4,75.6,184.3,75.9z M160.6,75.9
			C160.6,75.9,160.6,75.9,160.6,75.9c-0.2,0-0.5-0.1-0.6-0.3c-0.1-0.3,0-0.5,0.1-0.6c0.2-0.3,0.5-0.7,0.7-1l4.5-6.6
			c0.3-0.4,0.6-0.9,0.9-1.3l0.6-0.8c0.2-0.3,0.4-0.6,0.6-0.9c0.3-0.4,0.6-0.8,0.9-1.3l2.1-3.1c0.1-0.1,0.2-0.2,0.2-0.3
			c0.1-0.2,0.2-0.2,0.4-0.2l0,0c0.2,0,0.3,0.1,0.4,0.2l9.4,13.9c0.2,0.2,0.3,0.5,0.5,0.7l0.9,1.4l-0.7,0.1c-0.1,0-0.1,0-0.2,0
			l-2.3,0c-1.3,0-2.7,0-4,0c-4,0-8,0-12,0.1l-2,0c-0.1,0-0.1,0-0.2,0C160.8,75.9,160.7,75.9,160.6,75.9z M171,60.4
			C171,60.4,171,60.4,171,60.4l-2.1,3.1c-0.3,0.4-0.6,0.8-0.9,1.3c-0.2,0.3-0.4,0.6-0.6,0.9l-0.6,0.8c-0.3,0.4-0.6,0.9-0.9,1.3
			l-4.5,6.6c-0.2,0.3-0.4,0.5-0.5,0.8c0.1,0,0.1,0,0.2,0l2,0c4,0,8,0,12-0.1c1.3,0,2.7,0,4,0l1.9,0l-0.3-0.4
			c-0.2-0.2-0.3-0.5-0.5-0.7L171,60.4z M159,75.2l-0.4-0.6l-1.1-2.7l-4.3-10.5c-0.1-0.2,0-0.4,0-0.5c0.1-0.1,0.2-0.2,0.4-0.2
			l1.7-0.3c0.2,0,0.4-0.1,0.6-0.1c0.2,0,0.5-0.1,0.7-0.1l0.5,0c0.2,0,0.4,0,0.6-0.1c0.3,0,0.7-0.1,1-0.1l6.5-0.7c0.2,0,0.3,0,0.5,0
			l2.5-0.3c0.3,0,0.6-0.1,0.9-0.1c0.1,0,0.1,0,0.2,0l0.4,0l0,0.4c-0.1,0.5-0.4,0.9-0.6,1.2l-1.4,2c-0.4,0.5-0.7,1-1.1,1.5
			c-0.3,0.4-0.5,0.8-0.8,1.1c-0.1,0.1-0.2,0.3-0.3,0.4c-0.1,0.1-0.2,0.3-0.3,0.4c-0.1,0.2-0.2,0.3-0.3,0.5l-0.1,0.1
			c-0.3,0.5-0.6,0.9-0.9,1.4c-0.1,0.2-0.3,0.4-0.4,0.6l-0.5,0.9c-0.2,0.4-0.5,0.7-0.7,1.1c-0.3,0.5-0.7,1-1.1,1.5l-0.2,0.3
			c-0.2,0.3-0.4,0.5-0.6,0.8l-1,1.4c0,0-0.1,0.1-0.1,0.1L159,75.2z M154,61.4l5.2,12.6l0.7-1c0.2-0.3,0.4-0.5,0.6-0.8l0.2-0.3
			c0.4-0.5,0.7-1,1.1-1.5c0.2-0.4,0.5-0.7,0.7-1.1l0.5-0.9c0.1-0.2,0.3-0.5,0.5-0.7c0.3-0.4,0.6-0.8,0.9-1.3l0.1-0.1
			c0.1-0.2,0.2-0.4,0.3-0.5c0.1-0.2,0.2-0.3,0.3-0.4c0.1-0.1,0.2-0.3,0.3-0.4c0.3-0.4,0.5-0.7,0.8-1.1c0.4-0.5,0.7-1,1.1-1.5l1.4-2
			c0.1-0.2,0.3-0.4,0.4-0.6c-0.2,0-0.4,0-0.6,0.1l-2.5,0.3c-0.2,0-0.3,0-0.5,0l-6.5,0.7c-0.3,0-0.7,0.1-1,0.1c-0.2,0-0.4,0-0.6,0.1
			l-0.5,0c-0.2,0-0.4,0.1-0.7,0.1c-0.2,0-0.4,0.1-0.6,0.1L154,61.4z M182.9,75C182.9,75,182.9,75,182.9,75c-0.1,0-0.3,0-0.4-0.2
			l-0.1-0.2c-0.5-0.7-0.9-1.4-1.4-2c-0.2-0.3-0.4-0.6-0.6-0.9c-0.2-0.3-0.4-0.6-0.6-0.9l-2-3c-0.3-0.4-0.6-0.8-0.8-1.2
			c-0.3-0.4-0.6-0.8-0.8-1.2c-0.2-0.3-0.4-0.6-0.6-1c-0.2-0.3-0.5-0.7-0.7-1c-0.2-0.4-0.5-0.7-0.7-1.1c-0.2-0.3-0.4-0.6-0.7-1
			c-0.4-0.6-0.8-1.2-1.2-1.8c-0.1-0.1-0.1-0.3,0-0.5c0.1-0.2,0.3-0.2,0.5-0.2c0.6,0.1,1.2,0.1,1.9,0.2l2.4,0.3c0.2,0,0.4,0,0.6,0.1
			c0.2,0,0.4,0,0.5,0.1c0.3,0,0.6,0.1,1,0.1l0.6,0.1c0.3,0,0.5,0.1,0.8,0.1l1.8,0.2c0.7,0.1,1.5,0.1,2.2,0.2c0.7,0.1,1.3,0.1,2,0.2
			c0.5,0.1,1.1,0.1,1.6,0.2c0.2,0,0.3,0.1,0.5,0.1c0.1,0,0.2,0.1,0.2,0.2l0.2,0.2l-0.1,0.4c0,0.1-0.1,0.2-0.1,0.4l-0.4,1
			c-0.3,0.7-0.6,1.4-0.9,2.1c-0.2,0.4-0.3,0.8-0.5,1.2c-0.1,0.2-0.2,0.5-0.3,0.7l-0.1,0.3c-0.2,0.6-0.4,1.2-0.7,1.7
			c-0.1,0.2-0.2,0.5-0.3,0.7c-0.1,0.2-0.2,0.4-0.3,0.6c-0.2,0.4-0.3,0.8-0.5,1.3l-0.6,1.6c-0.2,0.5-0.4,1-0.6,1.5
			c0,0.1-0.1,0.2-0.2,0.3C183.1,74.9,183,75,182.9,75z M173,59.7c0.3,0.4,0.6,0.9,0.9,1.3c0.2,0.3,0.4,0.6,0.7,1
			c0.2,0.4,0.5,0.7,0.7,1.1c0.2,0.3,0.5,0.7,0.7,1c0.2,0.3,0.4,0.6,0.6,1c0.3,0.4,0.6,0.8,0.8,1.2c0.3,0.4,0.6,0.8,0.8,1.2l2,3
			c0.2,0.3,0.4,0.6,0.6,0.9c0.2,0.3,0.4,0.6,0.6,0.9c0.4,0.6,0.9,1.2,1.3,1.9c0.2-0.4,0.3-0.8,0.5-1.2l0.6-1.6
			c0.2-0.4,0.3-0.9,0.5-1.3c0.1-0.2,0.2-0.4,0.3-0.7c0.1-0.2,0.2-0.4,0.3-0.7c0.2-0.6,0.5-1.1,0.7-1.7l0.1-0.3
			c0.1-0.2,0.2-0.5,0.3-0.7c0.2-0.4,0.3-0.8,0.5-1.3c0.3-0.7,0.6-1.4,0.9-2.1l0.4-1c0-0.1,0.1-0.1,0.1-0.2c-0.1,0-0.1,0-0.2,0
			c-0.5-0.1-1.1-0.1-1.6-0.2c-0.7-0.1-1.3-0.1-2-0.2c-0.7-0.1-1.5-0.1-2.2-0.2l-1.8-0.2c-0.3,0-0.5-0.1-0.8-0.1l-0.6-0.1
			c-0.3,0-0.6-0.1-0.9-0.1c-0.2,0-0.4,0-0.5,0c-0.2,0-0.4,0-0.6-0.1l-2.4-0.3C173.9,59.8,173.5,59.8,173,59.7z M155,59.9
			c-0.1,0-0.2,0-0.2-0.1l-0.4-0.2l0.2-0.4c0-0.1,0.1-0.2,0.2-0.2c0.2-0.1,0.5-0.3,0.8-0.4l3.9-2.2c0.4-0.2,0.9-0.5,1.3-0.7
			c0.4-0.2,0.9-0.5,1.3-0.7c0.5-0.3,0.9-0.5,1.4-0.8c0.5-0.3,1.1-0.6,1.6-0.9l1.5-0.8c0.5-0.3,1-0.6,1.5-0.8l1.9-1.1
			c0.1-0.1,0.3-0.2,0.5-0.1c0.2,0.1,0.2,0.4,0.2,0.5l0,0.8c0,0.5,0,1,0,1.4c0,0.5,0,1.1,0,1.7l0,2.7c0,0.4-0.2,0.7-0.6,0.7
			c-0.3,0-0.6,0.1-0.8,0.1c-0.7,0.1-1.3,0.1-1.9,0.2l-0.8,0.1c-0.3,0-0.6,0.1-0.9,0.1c-0.3,0-0.6,0.1-0.9,0.1L164,59
			c-0.2,0-0.4,0-0.5,0.1l-5.6,0.6c-0.3,0-0.5,0.1-0.8,0.1l-1.8,0.2c0,0-0.1,0-0.1,0C155.1,59.9,155.1,59.9,155,59.9
			C155,59.9,155,59.9,155,59.9z M155,59.2C155,59.2,155,59.2,155,59.2C155,59.2,155,59.2,155,59.2z M169.9,51.3l-1.6,0.9
			c-0.5,0.3-1,0.6-1.5,0.9l-1.5,0.8c-0.5,0.3-1.1,0.6-1.6,0.9c-0.5,0.3-0.9,0.5-1.4,0.8c-0.4,0.2-0.9,0.5-1.3,0.7
			c-0.4,0.2-0.9,0.5-1.3,0.7l-3.5,2L157,59c0.3,0,0.5-0.1,0.8-0.1l5.6-0.6c0.2,0,0.4,0,0.5-0.1l0.8-0.1c0.3,0,0.6-0.1,0.9-0.1
			c0.3,0,0.6-0.1,0.9-0.1l0.8-0.1c0.6-0.1,1.2-0.1,1.8-0.2c0.3,0,0.6-0.1,0.8-0.1c0,0,0,0,0,0c0,0,0,0,0,0l0-2.7c0-0.6,0-1.1,0-1.7
			c0-0.5,0-1,0-1.5L169.9,51.3z M187.1,59.9l-1.9-0.2c-0.2,0-0.3,0-0.5-0.1l-1.8-0.2c-0.7-0.1-1.3-0.1-2-0.2l-1-0.1
			c-0.5-0.1-0.9-0.1-1.4-0.2c-0.3,0-0.6-0.1-0.8-0.1c-0.3,0-0.6-0.1-0.8-0.1l-2.4-0.3c-0.4,0-0.7-0.1-1.1-0.1l-0.9-0.1
			c-0.2,0-0.4,0-0.6-0.1c-0.4-0.1-0.7-0.3-0.7-0.7l0-6.7c0-0.2,0.1-0.4,0.2-0.5c0.2-0.1,0.3-0.1,0.5,0l15.1,8.6
			c0.1,0,0.1,0.1,0.2,0.1l0.2,0.2l-0.2,0.5L187.1,59.9z M171.9,51.2l0,6.3c0.2,0.1,0.5,0.1,0.7,0.1l0.9,0.1c0.4,0,0.7,0.1,1.1,0.1
			l2.4,0.3c0.3,0,0.6,0.1,0.8,0.1c0.3,0,0.6,0.1,0.8,0.1c0.5,0.1,0.9,0.1,1.4,0.2l1,0.1c0.7,0.1,1.3,0.1,2,0.2l1.8,0.2
			c0.2,0,0.3,0,0.5,0.1l0.4,0L171.9,51.2z"/>
	</g>
</g>
</svg>
