<?xml version="1.0" encoding="UTF-8"?><svg id="a" xmlns="http://www.w3.org/2000/svg" viewBox="0 0 192 192"><defs><style>.b{letter-spacing:-.02em;}.c{letter-spacing:.05em;}.d{letter-spacing:-.02em;}.e,.f{fill:#f2612b;}.f{font-family:UniversalSerif, Universal Serif;font-size:49.33px;}.g{letter-spacing:-.01em;}.h{letter-spacing:.06em;}.i{letter-spacing:-.01em;}.j{letter-spacing:.02em;}.k{letter-spacing:-.05em;}</style></defs><text class="f" transform="translate(-3.75 87.7)"><tspan class="j" x="0" y="0">S</tspan><tspan class="i" x="35.84" y="0">T</tspan><tspan class="k" x="72.15" y="0">A</tspan><tspan class="h" x="109.71" y="0">T</tspan><tspan class="d" x="-.99" y="44.91">B</tspan><tspan class="g" x="36.04" y="44.91">L</tspan><tspan class="b" x="71.49" y="44.91">O</tspan><tspan class="c" x="111.94" y="44.91">C</tspan><tspan x="152.8" y="44.91">K</tspan></text><g><path class="e" d="M174.65,80.81h0l.09-.34h0c.26-.86,.67-1.66,1.23-2.39h0l.11-.14h0l.14-.18h0s.09-.1,.13-.15l.05-.05c.09-.1,.18-.19,.28-.29l.06-.05c.1-.09,.19-.18,.29-.27l.05-.04c.11-.09,.21-.18,.32-.26h0l-1.42-1.41s-.09,.07-.14,.11c-.05,.05-.11,.09-.16,.14-.07,.06-.13,.12-.2,.18-.05,.05-.1,.09-.15,.14-.07,.07-.15,.15-.22,.22-.04,.04-.08,.08-.12,.12-.11,.12-.22,.24-.32,.36h0c-.56,.67-1.03,1.41-1.39,2.2-.05,.11-.1,.23-.15,.34-.47,1.16-.71,2.39-.71,3.65,0,.05,0,.11,0,.16h.03c.14-.02,.29-.04,.43-.06h.1c.15-.04,.29-.06,.44-.09h.05c.14-.04,.28-.07,.42-.1h.06c.15-.05,.29-.09,.44-.13h.03c0-.07,0-.12,0-.18,0-.06,0-.13,.01-.19,0-.09,.02-.17,.03-.26,0-.06,.01-.12,.02-.18,.01-.09,.03-.18,.04-.28,0-.05,.02-.1,.03-.16,.02-.1,.04-.2,.07-.3h0l.03-.11h0Z"/><path class="e" d="M169.09,78.25h0l1.23-1.21,.2-.2-1.61-1.6-2.81,2.77h0l-1.27,1.25-.99,.98,.03,.02c.13,.11,.26,.21,.39,.31,.02,.02,.05,.04,.07,.05,.14,.1,.28,.21,.42,.3l.03,.02c.14,.1,.29,.19,.43,.28l.04,.03c.15,.09,.3,.18,.45,.26l.04,.02,1.45-1.42h0l1.58-1.56h0l.04-.04,.27-.27Z"/><path class="e" d="M187.43,60.98c-.07-.11-.15-.22-.22-.33-.49-.72-1.04-1.43-1.65-2.1-.47-.51-.97-1.01-1.49-1.48l-1.84,1.85c.05,.05,.11,.1,.16,.14,.05,.05,.1,.09,.15,.14,.09,.08,.17,.16,.26,.25,.05,.05,.09,.09,.14,.14,.09,.09,.19,.19,.28,.28,.04,.04,.07,.07,.11,.11,.08,.08,.16,.17,.23,.25h0l.14,.16h0l.13,.15h0c.37,.43,.72,.88,1.05,1.35,.11,.16,.22,.33,.33,.49h0l.13,.2h0l.09,.14h0c.06,.09,.11,.19,.17,.28,.03,.05,.06,.1,.08,.15,.05,.09,.11,.18,.16,.28,.03,.06,.07,.13,.1,.19,.04,.08,.09,.16,.13,.24,.03,.07,.07,.14,.1,.2,.04,.08,.08,.16,.11,.23,.03,.07,.06,.14,.1,.21,.04,.08,.07,.16,.11,.24,.03,.07,.06,.14,.09,.21,.03,.08,.07,.16,.1,.24,.03,.07,.06,.14,.08,.21,.03,.08,.07,.17,.1,.26,.02,.07,.05,.13,.07,.2,.01,.03,.02,.07,.04,.1,.02-.02,.04-.03,.06-.05,.04-.04,.08-.08,.12-.12,.06-.06,.12-.12,.17-.18,.04-.04,.08-.09,.12-.13,.05-.06,.11-.13,.16-.19,.04-.04,.07-.09,.11-.14,.05-.07,.1-.13,.15-.2,.03-.05,.07-.09,.1-.14,.05-.07,.1-.15,.15-.23,.03-.04,.05-.08,.08-.13,.06-.1,.12-.2,.17-.3,.01-.02,.03-.04,.04-.07,.07-.12,.13-.25,.19-.38,.02-.04,.03-.08,.05-.12,.03-.07,.06-.15,.09-.23-.02-.04-.04-.09-.06-.13-.03-.06-.06-.13-.09-.19-.03-.06-.06-.12-.09-.17-.03-.06-.06-.12-.09-.18-.03-.06-.06-.12-.09-.17-.03-.06-.06-.12-.09-.17-.03-.06-.06-.11-.09-.17-.03-.06-.07-.12-.1-.18-.03-.05-.06-.1-.09-.16-.04-.06-.07-.13-.11-.19-.03-.05-.06-.1-.09-.15-.04-.07-.08-.13-.12-.19-.03-.05-.06-.1-.09-.14-.04-.06-.08-.13-.12-.19Z"/><path class="e" d="M180.35,82.33l-1.69-1.64h0l-.23-.22-.06-.06h0l-2.1-2.04s-.04,.05-.06,.07c-.03,.04-.06,.08-.09,.12-.04,.06-.08,.12-.12,.18-.03,.04-.06,.09-.08,.13-.04,.06-.08,.12-.11,.18-.03,.04-.05,.09-.08,.13-.04,.07-.07,.13-.11,.2-.02,.04-.04,.08-.06,.12-.04,.08-.08,.17-.12,.26-.01,.02-.02,.05-.03,.07-.05,.11-.09,.22-.13,.33-.01,.04-.02,.07-.04,.11-.03,.08-.06,.16-.08,.24-.01,.04-.03,.09-.04,.13-.02,.05-.03,.11-.04,.16l1.33,1.32h0l3.17,3.16,.12,.12c.12-.08,.25-.15,.37-.23,.06-.04,.12-.07,.18-.11,.2-.13,.4-.27,.6-.41,.04-.03,.08-.06,.12-.09,.15-.11,.3-.23,.45-.35,.07-.05,.13-.11,.2-.17,.09-.07,.18-.15,.26-.22l-1.53-1.49h0Z"/><path class="e" d="M162.17,78.5h0l1.9-1.91s-.05-.03-.07-.05c-.04-.03-.08-.06-.12-.08-.06-.04-.13-.08-.19-.12-.04-.03-.09-.05-.13-.08-.06-.04-.13-.07-.2-.11-.04-.02-.09-.05-.13-.07-.07-.04-.14-.07-.21-.1-.04-.02-.08-.04-.12-.06-.08-.04-.17-.07-.25-.11-.03-.01-.06-.02-.09-.04-.11-.04-.23-.08-.35-.12-.03-.01-.06-.02-.09-.03-.09-.03-.17-.05-.26-.08-.04-.01-.09-.02-.13-.03-.06-.01-.12-.03-.18-.04l-1.07,1.06h0l-1.44,1.44h0l-.1,.1-.2,.2h0l-1.55,1.54h-.01l.03,.06c.1,.17,.2,.33,.31,.49l.04,.06c.1,.16,.21,.32,.32,.47l.03,.04c.11,.16,.23,.31,.35,.47,.02,.03,.05,.06,.07,.09,.12,.15,.23,.29,.36,.44l.03,.04,.18-.18,1.81-1.81,1.18-1.19h0l.14-.14,.15-.15Z"/><path class="e" d="M182.75,73.1h-.18c-.17-.02-.34-.03-.53-.03-.15,0-.3,0-.45,.01-.05,0-.1,0-.15,.01-.1,0-.2,.01-.3,.02-.06,0-.12,.01-.18,.02-.09,0-.18,.02-.26,.03-.06,0-.13,.02-.19,.03-.08,.01-.17,.03-.25,.04-.06,.01-.13,.03-.19,.04-.08,.02-.16,.03-.24,.05-.06,.02-.13,.03-.19,.05-.08,.02-.16,.04-.24,.07-.06,.02-.13,.04-.19,.06-.08,.02-.16,.05-.24,.08-.06,.02-.12,.04-.18,.06-.03,0-.05,.02-.08,.03l1.61,1.59c.07-.02,.14-.03,.2-.04,.06-.01,.12-.03,.18-.04,.09-.02,.18-.03,.26-.04,.06,0,.12-.02,.18-.03,.1-.01,.19-.02,.29-.03,.05,0,.1-.01,.16-.01,.15,0,.3-.01,.45-.01,.05,0,.09,0,.14,0h.04c.08,0,.16,0,.23,.01,.67,.03,1.33,.16,1.96,.36h0l.19,.07h0l.18,.07h0s.08,.03,.12,.05c.03,.01,.06,.02,.09,.04,.07,.03,.14,.06,.2,.09,.04,.02,.07,.03,.11,.05,.06,.03,.12,.06,.17,.08,.04,.02,.08,.04,.12,.06,.05,.03,.11,.06,.16,.09,.04,.02,.08,.05,.12,.07,.05,.03,.1,.06,.15,.09,.04,.02,.08,.05,.12,.07,.05,.03,.1,.07,.15,.1,.04,.03,.07,.05,.11,.08,.05,.04,.11,.08,.16,.12,.03,.02,.06,.04,.09,.07h.01c.02-.06,.05-.13,.07-.2,.02-.06,.04-.13,.06-.19,.04-.14,.08-.28,.12-.42,.01-.05,.03-.1,.04-.16,.05-.19,.1-.38,.14-.57,0-.04,.02-.09,.03-.13,.03-.13,.05-.25,.08-.38l-.08-.05s-.09-.06-.14-.08c-.05-.03-.09-.06-.14-.08-.04-.03-.09-.05-.13-.08-.05-.03-.1-.05-.15-.08-.04-.02-.09-.05-.13-.07-.05-.03-.1-.05-.15-.08-.04-.02-.09-.04-.13-.06-.05-.02-.1-.05-.15-.07-.04-.02-.09-.04-.13-.06-.05-.02-.1-.04-.16-.07-.04-.02-.09-.04-.13-.06-.06-.02-.11-.04-.17-.06-.04-.02-.08-.03-.12-.05-.1-.04-.2-.07-.3-.1-.73-.24-1.49-.39-2.26-.44Z"/><path class="e" d="M163.72,69.48h0l.05,.05,.26,.26h0l1.33,1.33,1.7-1.7h0l-.93-.91-.06-.06-.23-.23h0l-1.4-1.36h0l-.17-.16-.13-.12h0l-2.06-2.01-.03,.04c-.1,.13-.2,.27-.29,.41-.02,.03-.04,.06-.06,.09-.1,.14-.19,.29-.28,.44l-.03,.05c-.09,.14-.17,.29-.25,.44-.01,.02-.02,.04-.03,.06-.08,.15-.16,.31-.23,.47l-.02,.05,1.38,1.37,1.5,1.49Z"/><path class="e" d="M177.89,66.4l-.12,.12s.03,.03,.05,.04c.04,.03,.07,.05,.11,.08,.05,.04,.11,.08,.16,.11,.04,.02,.07,.05,.11,.07,.06,.04,.11,.07,.17,.1,.04,.02,.07,.04,.11,.06,.06,.03,.12,.07,.18,.1,.03,.02,.07,.04,.1,.05,.08,.04,.15,.07,.23,.11,.02,0,.04,.02,.06,.03,.1,.04,.19,.09,.29,.12,.03,.01,.07,.03,.11,.04,.07,.02,.13,.05,.2,.07,.04,.01,.09,.03,.13,.04,.04,.01,.08,.03,.12,.04l.29-.29,4.28-4.21,.45-.44c-.06-.1-.13-.2-.2-.3-.03-.05-.07-.1-.1-.15-.12-.17-.24-.34-.36-.51-.03-.03-.05-.07-.08-.1-.1-.13-.2-.26-.31-.39-.04-.05-.09-.11-.13-.16-.06-.08-.13-.15-.19-.23l-1.52,1.5h0l-.13,.13-.15,.15h0l-.77,.76-3.09,3.04Z"/><path class="e" d="M172.9,78.58s.04-.09,.06-.13c.03-.07,.06-.13,.09-.2,.02-.04,.04-.09,.07-.13,.03-.07,.07-.13,.11-.2,.02-.04,.04-.08,.06-.12,.04-.07,.09-.15,.13-.22,.02-.03,.03-.06,.05-.09,.13-.21,.26-.41,.4-.61,.02-.03,.04-.05,.06-.08,.05-.07,.11-.14,.16-.21,.02-.03,.05-.06,.07-.1,.03-.03,.05-.07,.08-.1l-.03-.03-1.32-1.28h0l-.18-.17-.11-.11h0l-1.63-1.58h0l-.14-.13-.15-.15h0l-.66-.63-1.73,1.74-.06-.06,.68,.68,.06,.06,.23,.22h0l1.9,1.89h0l1.78,1.77,.02-.04Z"/><path class="e" d="M167.33,62.65l-.09,.33h0c-.21,.66-.5,1.29-.89,1.88-.03,.05-.07,.1-.1,.15h0l-.1,.14h0l-.13,.19h0c-.05,.06-.1,.12-.15,.18l-.03,.04c-.1,.12-.2,.23-.3,.34l-.05,.05c-.1,.11-.21,.21-.32,.32l-.05,.04c-.11,.11-.23,.21-.35,.31h0l1.39,1.35c.05-.04,.11-.09,.16-.14,.05-.04,.1-.09,.15-.13,.08-.07,.15-.15,.23-.22,.05-.05,.09-.09,.14-.14,.08-.08,.15-.17,.23-.25,.04-.04,.08-.09,.12-.13,.11-.13,.22-.26,.32-.39,.47-.59,.86-1.24,1.18-1.93,.04-.1,.09-.2,.13-.3,.43-1.02,.67-2.1,.73-3.22,0-.16,.01-.32,.01-.48,0-.08,0-.15,0-.23v-.06c0-.05,0-.11,0-.16v-.04h-.04c-.14,.03-.28,.05-.41,.07-.03,0-.07,.01-.1,.02-.14,.03-.28,.06-.42,.09h-.05c-.14,.05-.27,.08-.41,.12l-.06,.02c-.14,.04-.28,.08-.42,.13h-.04v.09c0,.61-.08,1.23-.22,1.82h0l-.03,.12h0Z"/><path class="e" d="M172.77,67.85l.18-.18,1.32-1.33h0l1.41-1.41h0l2.5-2.51s-.04-.03-.06-.05c-.03-.03-.07-.05-.1-.08-.06-.04-.12-.09-.18-.13-.03-.02-.07-.05-.1-.07-.06-.04-.12-.08-.18-.13-.03-.02-.07-.05-.1-.07-.07-.04-.13-.09-.2-.13-.03-.02-.06-.04-.09-.06-.1-.06-.2-.12-.29-.17h-.02c-.09-.06-.19-.11-.28-.16-.04-.02-.08-.04-.11-.06-.06-.03-.13-.06-.19-.1-.05-.02-.09-.04-.14-.07-.04-.02-.07-.03-.11-.05l-.09,.09-.97,.96h0l-.02,.02-.33,.33h0l-1.57,1.56h0l-2.05,2.04,1.78,1.75Z"/><path class="e" d="M164.89,90.17c-.14-.05-.27-.09-.41-.14-.07-.03-.14-.05-.21-.08-.16-.06-.32-.12-.47-.18-.05-.02-.09-.04-.14-.05-.19-.08-.38-.16-.57-.25-.05,.02-.11,.04-.16,.07-.06,.03-.12,.05-.18,.07-.07,.03-.14,.05-.2,.08-.06,.02-.12,.04-.18,.07-.07,.02-.14,.04-.21,.06-.06,.02-.12,.04-.18,.05-.07,.02-.14,.04-.21,.05-.06,.01-.12,.03-.18,.04-.07,.02-.15,.03-.22,.04-.06,.01-.12,.02-.18,.03-.08,.01-.16,.02-.24,.03-.06,0-.11,.02-.17,.02-.09,0-.18,.02-.27,.02-.05,0-.09,0-.14,.01-.14,0-.28,.01-.42,.01-.75,0-1.49-.11-2.2-.32l-.33-.1,2.25-2.22h0l.02-.02,.27-.27h0l1.89-1.86h0l1.54-1.51,.31-.31c-.08-.05-.15-.1-.22-.15-.06-.04-.13-.08-.19-.12-.14-.1-.28-.19-.42-.29-.03-.02-.07-.05-.1-.07-.17-.13-.34-.26-.5-.39-.05-.04-.1-.08-.15-.12-.09-.07-.18-.15-.26-.22l-3.82,3.76-4.02,3.99c1.68,1.3,3.76,2.01,5.89,2.01,1.93,0,3.77-.56,5.36-1.63-.05-.02-.11-.04-.16-.05-.08-.03-.16-.05-.23-.08Z"/><path class="e" d="M156.66,58.75l.67,.65,1.2,1.16c.05-.06,.1-.11,.15-.16,.05-.05,.1-.11,.15-.16,.08-.09,.16-.17,.24-.25,.05-.05,.1-.1,.15-.15,.09-.09,.17-.17,.26-.26,.04-.04,.09-.09,.13-.13,.08-.08,.16-.15,.24-.23h0l.16-.15h0l.14-.13h0c.53-.46,1.09-.9,1.68-1.3h0l.21-.14h0l.14-.09h0c.09-.06,.17-.11,.26-.17,.04-.02,.08-.05,.11-.07,.1-.06,.2-.12,.3-.18,.05-.03,.1-.05,.14-.08,.09-.05,.18-.1,.27-.15,.05-.03,.1-.06,.16-.08,.09-.05,.18-.09,.27-.14,.05-.03,.11-.05,.17-.08,.09-.04,.18-.09,.27-.13,.06-.03,.11-.05,.17-.08,.09-.04,.18-.08,.27-.12,.06-.03,.12-.05,.18-.08,.09-.04,.18-.07,.27-.11,.06-.02,.12-.05,.18-.07,.04-.01,.07-.03,.1-.04-.02-.02-.03-.04-.05-.05-.04-.04-.08-.09-.13-.13-.05-.05-.11-.11-.16-.16-.04-.04-.09-.08-.13-.12-.06-.05-.11-.1-.17-.15-.05-.04-.09-.08-.14-.11-.06-.05-.13-.1-.19-.15-.04-.03-.09-.07-.13-.1-.07-.05-.14-.1-.22-.15-.04-.03-.08-.05-.12-.08-.1-.07-.21-.13-.32-.19l-.03-.02c-.12-.07-.24-.13-.36-.19-.04-.02-.08-.03-.11-.05-.07-.03-.14-.07-.21-.1-.05,.02-.1,.05-.16,.08-.05,.03-.11,.05-.16,.08-.06,.03-.13,.07-.19,.1-.05,.03-.11,.06-.16,.09-.06,.03-.13,.07-.19,.1-.05,.03-.11,.06-.16,.09-.06,.04-.13,.07-.19,.11-.05,.03-.11,.06-.16,.09-.07,.04-.13,.08-.2,.12-.05,.03-.1,.06-.15,.09-.07,.04-.14,.09-.22,.14-.04,.03-.08,.05-.13,.08-.08,.05-.16,.11-.24,.16-.03,.02-.06,.04-.1,.06-.11,.07-.22,.15-.33,.23h0c-.69,.49-1.34,1.02-1.94,1.57-.52,.48-1.02,.99-1.47,1.5Z"/><path class="e" d="M158.21,56.63s.09-.08,.14-.12c.15-.13,.3-.25,.45-.38l.05-.04c.14-.11,.28-.22,.42-.33,.05-.04,.1-.08,.16-.12,.07-.05,.14-.11,.21-.16l-2.07-2.04,.33-.1c.65-.19,1.35-.28,2.06-.28,.98,0,1.94,.19,2.84,.55h0l.08,.03h0l.42,.18h-.01c.69,.34,1.32,.78,1.88,1.3,.19,.18,.36,.36,.53,.56h0l.09,.11h0l.19,.22h0l.02,.03s.03,.04,.05,.06c.05,.07,.1,.13,.15,.2,.02,.03,.04,.06,.06,.08,.04,.06,.08,.12,.12,.18,.02,.03,.04,.06,.06,.1,.04,.06,.07,.12,.11,.18,.02,.03,.04,.07,.06,.1,.03,.06,.07,.12,.1,.18,.02,.03,.04,.07,.05,.1,.03,.06,.06,.12,.09,.18,.02,.04,.03,.07,.05,.11,.03,.06,.06,.13,.08,.19,.02,.04,.03,.07,.04,.11,.01,.03,.02,.05,.03,.08,.09-.03,.18-.05,.28-.08,.05-.01,.1-.03,.16-.04,.18-.05,.36-.09,.54-.14,.03,0,.05-.01,.08-.02,.16-.03,.31-.07,.47-.1,.06-.01,.13-.02,.19-.03,.08-.01,.15-.03,.23-.04l-.02-.05s-.03-.07-.04-.11c-.02-.06-.05-.12-.07-.18-.01-.04-.03-.07-.05-.11-.02-.06-.05-.12-.07-.18-.02-.04-.03-.07-.05-.11-.03-.06-.05-.12-.08-.17-.02-.04-.03-.07-.05-.11-.03-.06-.06-.11-.09-.17-.02-.04-.04-.07-.06-.11-.03-.06-.06-.11-.09-.17-.02-.03-.04-.07-.06-.1-.03-.06-.07-.12-.11-.18-.02-.03-.03-.06-.05-.08-.05-.09-.11-.17-.17-.26-.64-.97-1.43-1.8-2.35-2.47-1.66-1.22-3.63-1.86-5.69-1.86s-4.12,.67-5.79,1.94l3.86,3.85c.07-.06,.14-.13,.22-.19Z"/><path class="e" d="M175.51,90.3s-.04-.03-.05-.05c-.09-.08-.17-.15-.26-.23-.03-.03-.07-.06-.1-.09-.07-.07-.14-.13-.2-.2-.04-.04-.07-.07-.1-.11-.06-.07-.13-.13-.19-.2-.03-.04-.07-.07-.1-.11-.06-.07-.13-.15-.19-.22-.03-.03-.05-.06-.08-.09-.17-.22-.34-.44-.49-.67-.02-.04-.05-.07-.07-.11-.04-.06-.08-.12-.11-.17-.07,0-.14,.02-.21,.03-.12,.02-.25,.03-.37,.05-.09,0-.18,.02-.27,.03-.13,.01-.26,.02-.4,.03-.08,0-.16,0-.24,.01-.15,0-.29,.01-.44,.02-.07,0-.14,0-.2,0-.07,0-.14,0-.21,0-.59,0-1.17-.03-1.75-.09h-.02c-.22-.03-.44-.05-.65-.08h-.05c-.17-.03-.34-.06-.5-.09h0l-.13-.02h0l-.3-.06h0c-.65-.14-1.3-.31-1.92-.52h0l-.14-.04h-.01l-.26-.09h0l-.04-.02c-.05-.02-.1-.04-.16-.06-.08-.03-.16-.06-.24-.09-.08-.03-.16-.06-.23-.09-.07-.03-.15-.06-.22-.09-.08-.04-.16-.07-.24-.11-.07-.03-.14-.06-.21-.1-.08-.04-.16-.08-.25-.12-.07-.03-.13-.07-.2-.1-.08-.04-.17-.08-.25-.13-.06-.03-.13-.07-.19-.1-.08-.04-.17-.09-.25-.14-.06-.03-.12-.07-.18-.1-.08-.05-.17-.1-.25-.15-.06-.03-.11-.07-.16-.1-.06-.04-.12-.07-.18-.11l-1.9,1.87s.06,.04,.09,.06c.04,.03,.09,.06,.13,.09,.07,.05,.15,.1,.22,.14,.05,.03,.09,.06,.14,.09,.07,.05,.15,.09,.23,.14,.05,.03,.09,.06,.14,.08,.08,.05,.16,.09,.24,.14,.04,.02,.09,.05,.13,.07,.09,.05,.17,.1,.26,.14,.04,.02,.07,.04,.11,.06,.1,.06,.21,.11,.31,.16l.07,.04c.25,.13,.5,.25,.75,.36l.04,.02c.84,.39,1.72,.71,2.62,.97,3.14,.92,6.56,1.01,9.74,.28l-.02-.02Z"/><path class="e" d="M184,86.49c-.05,.04-.1,.09-.15,.13-.19,.16-.39,.32-.59,.47-.02,.02-.05,.04-.07,.05-.17,.13-.35,.26-.53,.39-.06,.04-.13,.09-.19,.13-.1,.07-.2,.14-.3,.21l2.11,2.11-.34,.09c-.62,.16-1.26,.24-1.9,.24-1.1,0-2.15-.23-3.13-.67h0l-.08-.04h0l-.41-.19h.01c-.8-.44-1.53-1.02-2.13-1.7-.07-.08-.13-.16-.2-.24h0l-.09-.11h0l-.18-.23h0l-.02-.03s-.03-.05-.05-.07c-.05-.07-.09-.13-.13-.2-.02-.03-.04-.06-.06-.09-.04-.06-.07-.12-.11-.18-.02-.04-.04-.07-.06-.11-.03-.06-.06-.11-.09-.17-.02-.04-.04-.08-.06-.12-.03-.06-.06-.11-.08-.17-.02-.04-.04-.08-.06-.12-.03-.06-.05-.11-.07-.17-.02-.04-.04-.09-.05-.13-.02-.06-.04-.11-.07-.17-.02-.05-.03-.09-.05-.14,0-.02-.02-.05-.03-.07-.09,.02-.19,.05-.28,.07-.06,.01-.11,.03-.17,.04-.18,.04-.37,.08-.55,.12-.02,0-.05,0-.07,.01-.16,.03-.33,.06-.49,.08-.06,0-.12,.02-.18,.02-.08,.01-.16,.02-.24,.03l.02,.05s.02,.07,.03,.1c.02,.06,.04,.13,.07,.19,.01,.04,.03,.07,.04,.11,.02,.06,.05,.12,.07,.18,.01,.04,.03,.07,.04,.11,.02,.06,.05,.12,.08,.18,.02,.04,.03,.07,.05,.11,.03,.06,.06,.12,.08,.18,.02,.03,.03,.07,.05,.1,.03,.06,.06,.13,.09,.19,.02,.03,.03,.06,.05,.09,.04,.07,.07,.14,.11,.2,.01,.02,.02,.05,.04,.07,.05,.08,.1,.17,.15,.25v.02c.16,.24,.32,.48,.49,.71,.51,.69,1.11,1.3,1.79,1.84,1.71,1.34,3.76,2.05,5.94,2.05s4.45-.8,6.19-2.26l-3.89-3.85c-.11,.1-.22,.19-.33,.29Z"/><path class="e" d="M166.19,52.82s.07,.06,.11,.09c.07,.06,.14,.11,.21,.17,.04,.04,.08,.08,.13,.11,.06,.06,.12,.11,.18,.17,.04,.04,.08,.08,.12,.12,.06,.06,.12,.12,.18,.18,.04,.04,.08,.08,.11,.12,.06,.07,.13,.14,.19,.21,.03,.03,.06,.07,.09,.1,.18,.21,.36,.43,.52,.66,.02,.03,.05,.06,.07,.1,.04,.06,.09,.12,.13,.18,.03,0,.07-.01,.1-.02,.06-.01,.13-.02,.19-.03,.06-.01,.13-.02,.19-.03,.05,0,.1-.02,.15-.02,.08-.01,.16-.02,.24-.03h.1c.1-.02,.2-.04,.29-.04h.05c.11-.02,.23-.03,.34-.04h0c.43-.03,.86-.05,1.3-.05,.03,0,.07,0,.1,0,.17,0,.33,0,.5,.01,.06,0,.12,0,.19,0,.18,0,.35,.02,.53,.03,.05,0,.09,0,.14,.01,.19,.02,.38,.04,.56,.06h.08c.16,.03,.32,.05,.48,.08h0l.13,.02h.01l.3,.05h0c.34,.07,.68,.13,1.02,.22,.09,.02,.18,.05,.28,.07,.3,.08,.59,.16,.88,.26h0l.13,.04h.02l.27,.1h0s.07,.03,.1,.04c.07,.02,.13,.05,.2,.08,.07,.03,.13,.05,.2,.08,.06,.02,.12,.05,.18,.07,.07,.03,.15,.06,.22,.09,.06,.02,.11,.05,.16,.07,.08,.03,.15,.07,.23,.1,.05,.02,.11,.05,.16,.07,.08,.04,.16,.07,.23,.11,.05,.02,.1,.05,.15,.08,.08,.04,.16,.08,.23,.12,.05,.03,.1,.05,.15,.08,.08,.04,.15,.08,.23,.12,.05,.03,.1,.06,.15,.08,.05,.03,.1,.05,.15,.08l.86-.86,1.04-1.03c-.07-.04-.13-.08-.2-.13-.08-.05-.15-.09-.23-.14-.11-.06-.21-.12-.32-.19-.08-.05-.16-.09-.24-.13-.12-.06-.23-.12-.35-.18-.07-.04-.15-.08-.22-.12-.19-.1-.38-.19-.58-.28-.86-.4-1.74-.73-2.64-1-.13-.04-.26-.07-.38-.11-3.28-.9-6.84-.9-10.13-.02h0Z"/><path class="e" d="M154.91,81.87c.54,.84,1.15,1.65,1.82,2.41,.38,.43,.78,.84,1.18,1.22l1.86-1.83s-.08-.08-.12-.12c-.04-.04-.09-.08-.13-.12-.07-.07-.14-.14-.21-.21-.04-.04-.08-.08-.12-.12-.07-.08-.15-.16-.22-.23-.03-.04-.07-.07-.1-.11-.06-.06-.11-.12-.16-.18h0l-.14-.16-.12-.14h0c-.57-.67-1.09-1.39-1.54-2.14h0l-.12-.21v-.02l-.09-.14h0c-.05-.08-.09-.16-.13-.24-.02-.04-.04-.08-.06-.12-.05-.09-.09-.17-.14-.26-.03-.05-.05-.11-.08-.16-.04-.07-.07-.15-.11-.22-.03-.06-.06-.12-.08-.18-.03-.07-.07-.14-.1-.21-.03-.06-.05-.12-.08-.18-.03-.07-.06-.14-.09-.21-.03-.06-.05-.12-.08-.19-.03-.07-.06-.14-.09-.21-.02-.06-.05-.12-.07-.19-.03-.07-.05-.15-.08-.22-.02-.06-.04-.12-.06-.18,0-.02-.02-.05-.03-.07-.02,.02-.04,.03-.06,.05-.04,.03-.08,.07-.12,.1-.06,.06-.13,.11-.19,.17-.04,.04-.08,.07-.11,.11-.06,.06-.12,.12-.18,.18-.04,.04-.07,.07-.11,.11-.06,.06-.11,.13-.17,.19-.03,.04-.06,.07-.1,.11-.06,.07-.12,.15-.17,.22-.02,.03-.05,.07-.08,.1-.16,.22-.3,.44-.44,.68-.02,.04-.04,.08-.06,.12-.03,.06-.07,.13-.1,.19,.05,.12,.11,.23,.16,.35,.04,.1,.09,.19,.13,.29,.07,.14,.14,.27,.21,.41,.05,.09,.09,.18,.14,.26,.08,.15,.17,.3,.25,.45,.04,.07,.08,.14,.12,.21,.13,.22,.26,.43,.39,.64Z"/><path class="e" d="M154.67,69.03l.04-.3h0c.11-.69,.27-1.39,.48-2.08h0l.04-.13h0l.09-.28h0c.02-.06,.04-.12,.06-.17,.01-.03,.02-.07,.04-.1,.04-.12,.08-.23,.13-.35,.02-.05,.04-.09,.05-.14,.04-.1,.08-.2,.12-.3,.02-.05,.05-.11,.07-.16,.04-.09,.08-.19,.12-.28,.03-.06,.05-.11,.08-.17,.04-.09,.08-.18,.12-.26,.03-.06,.06-.12,.09-.18,.04-.08,.08-.17,.12-.25,.03-.06,.07-.13,.1-.19,.04-.08,.08-.15,.12-.23,.04-.07,.08-.13,.11-.2,.03-.05,.06-.1,.08-.15l-.5-.5-1.4-1.4-.04,.07c-.04,.06-.07,.12-.11,.17-.04,.06-.07,.12-.1,.17-.03,.06-.07,.11-.1,.17-.04,.06-.07,.12-.1,.18-.03,.05-.06,.11-.09,.16-.04,.06-.07,.13-.11,.19-.03,.05-.06,.1-.08,.16-.04,.07-.07,.14-.11,.21-.02,.05-.05,.1-.07,.15-.04,.08-.08,.15-.11,.23-.02,.04-.04,.08-.06,.12-.06,.12-.11,.23-.16,.35-.01,.03-.03,.06-.04,.09-.04,.08-.07,.17-.11,.25l-.02,.04c-.4,.94-.73,1.92-.97,2.9-.38,1.51-.57,3.08-.57,4.66,0,1.44,.16,2.88,.48,4.27h.01s.06-.08,.09-.11c.06-.07,.13-.14,.19-.21,.04-.04,.08-.08,.11-.12,.06-.06,.12-.12,.18-.18,.04-.04,.08-.08,.12-.12,.06-.06,.12-.12,.19-.17,.04-.04,.08-.07,.12-.11,.07-.06,.14-.12,.21-.18,.04-.03,.07-.06,.11-.09,.1-.08,.21-.16,.31-.24h.02c.11-.09,.23-.17,.34-.25,.04-.03,.08-.05,.11-.07,.06-.04,.12-.08,.17-.11-.01-.09-.02-.18-.03-.27-.01-.08-.02-.16-.03-.25-.01-.12-.02-.24-.03-.36,0-.08-.01-.16-.02-.23,0-.13-.02-.27-.02-.4,0-.07,0-.13-.01-.2,0-.2-.01-.4-.01-.6,0-.77,.06-1.55,.16-2.31h0l.02-.13h0Z"/><path class="e" d="M184.2,85.78c.4-.37,.8-.77,1.2-1.19l-1.85-1.84s-.06,.06-.09,.1c-.05,.05-.1,.11-.15,.16-.06,.06-.12,.13-.18,.19-.05,.05-.09,.09-.14,.14-.07,.07-.15,.14-.22,.21-.04,.04-.08,.07-.12,.11-.06,.06-.12,.11-.19,.17h0l-.15,.13h-.01l-.14,.14h0c-.64,.56-1.33,1.07-2.06,1.53-.04,.02-.08,.05-.12,.07h0l-.21,.13h-.01l-.13,.09h0c-.09,.05-.18,.11-.27,.16-.03,.02-.06,.03-.09,.05-.11,.06-.21,.12-.32,.17-.05,.02-.09,.05-.14,.07-.09,.05-.18,.09-.28,.14-.06,.03-.11,.05-.17,.08-.08,.04-.17,.08-.25,.12-.06,.03-.12,.06-.19,.08-.08,.04-.16,.07-.24,.1-.07,.03-.13,.05-.2,.08-.08,.03-.16,.06-.23,.09-.07,.03-.14,.05-.21,.08-.08,.03-.15,.06-.23,.08-.07,.02-.14,.05-.21,.07-.03,0-.06,.02-.09,.03,.02,.02,.03,.04,.05,.06,.04,.04,.07,.08,.11,.13,.06,.06,.11,.12,.17,.18,.04,.04,.08,.08,.11,.12,.06,.06,.12,.12,.18,.18,.04,.04,.08,.07,.11,.1,.07,.06,.13,.12,.2,.17,.04,.03,.07,.06,.11,.09,.08,.06,.15,.12,.23,.17,.03,.02,.07,.05,.1,.07,.1,.07,.21,.14,.32,.21h.02c.11,.09,.23,.15,.35,.22,.04,.02,.09,.04,.13,.07,.06,.03,.13,.07,.19,.1l.04-.02c.23-.1,.45-.2,.67-.31l.06-.03c.22-.11,.45-.22,.67-.34l.05-.03c.22-.12,.44-.24,.66-.37l.03-.02c.22-.13,.44-.27,.66-.41,.64-.41,1.25-.87,1.84-1.36,.21-.18,.42-.36,.62-.54Z"/><path class="e" d="M189.77,76.85c.5-1.74,.76-3.54,.76-5.37,0-1.59-.19-3.16-.57-4.69h-.01s-.04,.06-.06,.09c-.07,.09-.14,.17-.21,.26-.03,.04-.07,.08-.1,.11-.06,.07-.12,.14-.18,.21-.04,.04-.07,.08-.11,.12-.06,.07-.13,.13-.19,.19-.04,.04-.07,.07-.11,.11-.07,.07-.14,.13-.21,.2-.03,.03-.07,.06-.1,.09-.1,.09-.2,.17-.3,.25l-.03,.02c-.11,.09-.22,.17-.33,.26-.04,.03-.08,.06-.12,.09-.06,.04-.11,.08-.17,.12,.02,.1,.03,.2,.04,.29,.01,.1,.03,.19,.04,.29,.01,.12,.03,.24,.04,.36,0,.1,.02,.2,.03,.29,.01,.14,.02,.28,.03,.41,0,.08,.01,.17,.01,.25,0,.22,.01,.45,.01,.67,0,.99-.09,1.97-.26,2.92h0l-.02,.13h0l-.06,.31h0c-.14,.71-.33,1.41-.57,2.09h0l-.05,.13-.1,.28h0c-.02,.05-.04,.1-.06,.16-.02,.06-.04,.11-.07,.16-.03,.09-.07,.18-.11,.26-.03,.06-.05,.13-.08,.19-.03,.08-.07,.15-.1,.23-.03,.07-.06,.13-.09,.2-.03,.07-.07,.15-.1,.22-.03,.07-.07,.13-.1,.2-.04,.07-.07,.14-.11,.21-.03,.07-.07,.13-.1,.2-.04,.07-.07,.14-.11,.21-.04,.06-.07,.13-.11,.19-.04,.07-.08,.14-.12,.21-.04,.06-.07,.12-.11,.19-.03,.04-.05,.09-.08,.14l1.89,1.86c.06-.09,.12-.18,.17-.26,.05-.08,.11-.16,.16-.25,.08-.13,.16-.26,.23-.39,.05-.08,.1-.17,.15-.25,.08-.14,.16-.28,.23-.43,.04-.07,.08-.14,.12-.22,.11-.22,.22-.43,.32-.65,.32-.69,.61-1.4,.85-2.13,.08-.24,.16-.49,.23-.74Z"/><path class="e" d="M165.96,64.71l.03-.05s.04-.06,.06-.1c.04-.06,.07-.11,.11-.17,.02-.03,.04-.07,.06-.1,.03-.06,.06-.11,.1-.17,.02-.03,.04-.07,.06-.1,.03-.06,.06-.12,.09-.18,.02-.03,.03-.06,.05-.1,.03-.07,.07-.15,.1-.23,0-.02,.02-.04,.02-.06,.04-.09,.08-.19,.11-.29,0-.03,.02-.05,.03-.08,.03-.07,.05-.14,.07-.22,.01-.03,.02-.07,.03-.1,.01-.04,.03-.09,.04-.13l-.29-.28-.93-.92h0l-.14-.14-.16-.16h0l-.33-.32-2.94-2.9c-.1,.06-.19,.13-.29,.19-.04,.03-.08,.06-.12,.08-.16,.11-.32,.23-.47,.35-.02,.02-.04,.04-.07,.05-.13,.1-.26,.21-.39,.31-.05,.04-.1,.08-.15,.12-.07,.06-.14,.12-.2,.18l5.16,5.12,.37,.37Z"/><path class="e" d="M166.51,87.11c.12,.04,.24,.07,.36,.1,.06,.02,.12,.03,.17,.05,.17,.05,.35,.09,.52,.13,.05,.01,.09,.02,.14,.03,.11,.02,.22,.05,.33,.07,.02-.03,.03-.05,.05-.08,.03-.04,.05-.08,.08-.12,.03-.05,.06-.1,.09-.15,.02-.04,.05-.08,.07-.12,.03-.05,.06-.1,.08-.15,.02-.04,.04-.08,.07-.12,.03-.05,.05-.1,.08-.16,.02-.04,.04-.08,.06-.13,.02-.05,.05-.11,.07-.16,.02-.04,.04-.09,.06-.13,.02-.05,.05-.11,.07-.16,.02-.04,.04-.09,.05-.13,.02-.06,.05-.12,.07-.18,.01-.04,.03-.08,.04-.12,.04-.1,.07-.2,.1-.3,.22-.66,.36-1.36,.42-2.07h0v-.16l.02-.03v-.19c.02-.16,.03-.32,.03-.5,0-.15,0-.3-.01-.45,0-.05,0-.1-.01-.15,0-.1-.01-.2-.02-.3,0-.06-.01-.12-.02-.18,0-.09-.02-.18-.03-.26,0-.06-.02-.13-.03-.19-.01-.08-.03-.17-.04-.25-.01-.07-.03-.13-.04-.2-.02-.08-.03-.16-.05-.24-.02-.07-.03-.13-.05-.2-.02-.08-.04-.16-.06-.23-.02-.07-.04-.13-.06-.2-.02-.08-.05-.15-.08-.23-.02-.06-.04-.13-.07-.19,0-.03-.02-.05-.03-.08l-1.61,1.59v.03c.04,.14,.08,.27,.11,.41v.05c.04,.14,.06,.29,.08,.43v.04c.02,.15,.04,.3,.05,.45v.02c0,.11,.01,.22,.02,.33h0v.43h0c-.02,.66-.13,1.31-.31,1.94h0l-.06,.2h0l-.06,.19h0s-.02,.07-.04,.11c-.01,.03-.03,.07-.04,.1-.03,.07-.05,.13-.08,.19-.02,.04-.03,.08-.05,.12-.03,.06-.05,.12-.08,.17-.02,.04-.04,.08-.06,.12-.03,.05-.05,.11-.08,.16-.02,.04-.04,.08-.06,.12-.03,.05-.06,.1-.09,.16-.02,.04-.05,.08-.07,.12-.03,.05-.06,.1-.09,.15-.02,.04-.05,.08-.07,.12-.03,.05-.07,.1-.1,.15-.03,.04-.05,.07-.08,.11h-.01c.06,.03,.12,.05,.18,.07,.07,.02,.13,.04,.2,.06Z"/><path class="e" d="M159.43,70.25h.2l.21,.02h.09c.15,0,.31,0,.46,0,.05,0,.1,0,.15,0,.1,0,.21-.01,.31-.02,.06,0,.11-.01,.17-.02,.09-.01,.19-.02,.28-.03,.06,0,.12-.02,.18-.03,.09-.01,.18-.03,.27-.05,.06-.01,.12-.02,.18-.04,.09-.02,.18-.04,.27-.06,.06-.01,.12-.03,.18-.04,.09-.02,.18-.05,.26-.07,.06-.02,.11-.03,.17-.05,.09-.03,.18-.06,.27-.09,.05-.02,.11-.04,.16-.06,.03-.01,.06-.02,.09-.03l-1.54-1.53c-.06,.02-.13,.03-.2,.04-.06,.01-.12,.03-.18,.04-.09,.02-.19,.03-.28,.05-.05,0-.11,.02-.16,.02-.11,.01-.21,.02-.32,.03-.04,0-.09,0-.13,.01-.15,.01-.3,.02-.45,.02-.02,0-.06,0-.1,0s-.08,0-.12,0h-.05c-.66-.02-1.3-.11-1.93-.29h0l-.2-.06h-.01l-.17-.06h0s-.07-.03-.11-.04c-.05-.02-.09-.04-.14-.05-.05-.02-.11-.04-.16-.06-.05-.02-.09-.04-.13-.06-.05-.02-.11-.05-.16-.07-.04-.02-.09-.04-.13-.06-.05-.03-.11-.05-.16-.08-.04-.02-.08-.04-.12-.06-.05-.03-.11-.06-.16-.09-.04-.02-.07-.04-.11-.06-.06-.03-.11-.07-.17-.11-.03-.02-.06-.04-.1-.06-.07-.04-.13-.09-.19-.13-.02-.02-.04-.03-.07-.05h-.02c-.02,.05-.04,.12-.06,.19-.02,.07-.04,.14-.06,.21-.04,.13-.07,.27-.1,.41-.01,.06-.03,.11-.04,.16-.04,.19-.08,.38-.12,.57,0,.03-.01,.06-.02,.09-.02,.13-.04,.27-.07,.4,.03,.02,.06,.03,.08,.05,.04,.02,.09,.05,.13,.07,.05,.03,.1,.05,.15,.08,.04,.02,.09,.04,.13,.07,.05,.03,.11,.05,.16,.08,.04,.02,.08,.04,.12,.06,.06,.03,.11,.05,.17,.08,.04,.02,.08,.03,.12,.05,.06,.03,.12,.05,.19,.08,.04,.01,.07,.03,.11,.04,.07,.03,.14,.05,.21,.08,.03,.01,.06,.02,.09,.03,.08,.03,.16,.05,.24,.08,.02,0,.04,.01,.06,.02,.1,.03,.2,.06,.3,.09,.68,.19,1.38,.3,2.09,.34Z"/><path class="e" d="M157.97,75.36h0c.05,.19,.11,.36,.17,.54l.02,.06c.06,.17,.12,.34,.18,.5l.03,.08c.06,.16,.13,.33,.2,.49l.03,.08c.07,.16,.15,.33,.23,.49v.02l1.47-1.46c-.04-.09-.08-.19-.11-.28-.02-.06-.05-.11-.07-.17-.05-.13-.1-.26-.14-.4h0l-.04-.14-.09-.27h0c-.24-.78-.39-1.58-.45-2.38l-.02-.2h0c-.02-.27-.03-.55-.03-.83,0-.16,0-.32,.01-.48,0-.05,0-.1,0-.15,0-.07,0-.13,.01-.2h-.03c-.14-.01-.29-.02-.43-.04h-.06c-.3-.04-.59-.08-.89-.14h-.07c-.14-.04-.28-.08-.43-.11h-.02v.03c-.02,.16-.03,.32-.03,.49,0,.03,0,.06,0,.09,0,.17-.01,.33-.01,.5,0,.44,.02,.9,.07,1.35,.08,.86,.25,1.71,.49,2.53Z"/><path class="e" d="M182.61,79.21c.18-.27,.36-.54,.52-.82,.02-.03,.04-.07,.06-.1,.04-.07,.08-.14,.12-.22,.02-.03,.04-.07,.06-.11,.04-.07,.08-.15,.12-.22,.02-.04,.04-.08,.06-.12,.04-.07,.07-.14,.1-.21,.02-.04,.04-.09,.06-.13,.03-.07,.06-.14,.09-.2,.02-.05,.04-.09,.06-.14,.03-.07,.06-.13,.08-.2,.02-.05,.04-.1,.06-.14,.03-.06,.05-.13,.08-.19,.02-.05,.04-.1,.06-.15,.02-.07,.05-.13,.07-.2,.02-.05,.03-.1,.05-.15,.01-.03,.02-.06,.03-.1l-.05-.02s-.07-.02-.1-.03c-.05-.02-.11-.03-.16-.05-.03,0-.07-.02-.1-.03-.06-.01-.11-.03-.17-.04-.03,0-.06-.01-.09-.02-.07-.01-.13-.03-.2-.04-.02,0-.04,0-.07-.01-.09-.02-.18-.03-.27-.04h-.05c-.07-.02-.14-.03-.21-.03-.03,0-.06,0-.09,0-.06,0-.12-.01-.18-.01-.03,0-.07,0-.1,0-.03,0-.06,0-.09,0-.02,.05-.04,.09-.05,.14-.02,.06-.04,.11-.06,.17-.03,.07-.06,.14-.09,.21-.02,.05-.04,.11-.07,.16-.03,.08-.07,.15-.1,.23-.02,.05-.04,.09-.06,.14-.03,.07-.07,.14-.11,.22h0l-.07,.13c-.1,.2-.21,.4-.32,.59-.27,.47-.58,.92-.92,1.35-.05,.06-.09,.12-.14,.18h0l-.12,.14h0l-.14,.17h0c-.06,.06-.11,.13-.17,.19-.04,.04-.08,.08-.12,.12-.07,.08-.14,.15-.22,.22-.05,.05-.1,.09-.14,.14-.07,.07-.14,.13-.21,.19-.05,.05-.11,.1-.16,.14-.04,.03-.08,.07-.12,.1l1.39,1.35s.08-.07,.12-.11c.05-.05,.11-.1,.16-.15,.06-.06,.12-.12,.18-.18,.05-.05,.1-.1,.15-.15,.07-.07,.13-.14,.2-.2,.04-.04,.08-.08,.12-.13,.1-.11,.2-.22,.3-.33h0c.29-.34,.56-.69,.82-1.04,.07-.09,.13-.19,.19-.28Z"/><path class="e" d="M162,81.74c.45,.41,.93,.78,1.43,1.12,.24,.16,.47,.32,.72,.46,.11,.07,.22,.13,.34,.19,.05,.03,.09,.05,.14,.07,.07,.04,.14,.07,.21,.11,.05,.03,.1,.05,.15,.08,.07,.03,.13,.07,.2,.1,.05,.03,.1,.05,.15,.07,.07,.03,.13,.06,.2,.09,.05,.02,.1,.05,.15,.07,.07,.03,.14,.06,.21,.09,.05,.02,.1,.04,.15,.06,.07,.03,.14,.06,.21,.09,.05,.02,.1,.04,.15,.05,.07,.03,.15,.05,.22,.08,.05,.02,.09,.03,.14,.05,.04,.01,.07,.02,.11,.04v-.04s.03-.07,.04-.1c.01-.05,.03-.11,.04-.16,0-.03,.02-.07,.02-.1,.01-.05,.02-.11,.04-.16,0-.03,.01-.07,.02-.1,.01-.06,.02-.11,.03-.17,0-.03,.01-.07,.02-.1,0-.06,.02-.13,.03-.19,0-.02,0-.05,.01-.07,.01-.09,.02-.17,.03-.26,0-.03,0-.06,0-.1,0-.06,0-.11,.01-.17,0-.04,0-.08,0-.11,0-.04,0-.07,0-.11-.05-.02-.11-.04-.16-.06-.05-.02-.11-.04-.16-.06-.09-.03-.17-.07-.26-.11-.04-.02-.09-.04-.13-.06-.1-.04-.19-.09-.29-.13-.03-.02-.07-.03-.1-.05-.08-.04-.17-.08-.25-.13h0l-.13-.07h0l-.24-.13h0c-.63-.35-1.23-.76-1.78-1.22-.04-.03-.08-.07-.12-.1h0l-.11-.1-.03-.03-.16-.14h0c-.07-.06-.13-.12-.19-.18-.04-.04-.07-.07-.11-.11-.08-.07-.15-.15-.23-.23-.04-.05-.09-.09-.13-.14-.07-.07-.13-.14-.2-.21-.04-.05-.09-.1-.13-.15-.03-.04-.07-.08-.11-.12l-1.09,1.09-.29,.29s.07,.08,.11,.12c.05,.05,.09,.1,.14,.15,.06,.06,.12,.13,.18,.19,.05,.05,.09,.1,.14,.15,.07,.07,.13,.13,.2,.2,.04,.04,.09,.09,.13,.13,.11,.11,.22,.21,.33,.31Z"/><path class="e" d="M175.01,84.73c.08-.02,.17-.05,.25-.07,.04-.01,.08-.02,.12-.04,.08-.02,.16-.05,.23-.08,.04-.01,.08-.03,.12-.04,.07-.03,.15-.05,.22-.08,.04-.02,.08-.03,.12-.05,.07-.03,.15-.06,.22-.08,.04-.02,.08-.03,.12-.05,.07-.03,.14-.06,.21-.09,.04-.02,.08-.04,.12-.05,.07-.03,.14-.06,.21-.09,.04-.02,.08-.04,.12-.06,.07-.03,.14-.07,.21-.1,.04-.02,.08-.04,.12-.06l.05-.03-1.21-1.21-.24-.24s-.09,.04-.13,.06c-.04,.02-.08,.04-.13,.05-.07,.03-.15,.06-.23,.09-.04,.02-.08,.03-.12,.05-.08,.03-.16,.06-.25,.09-.04,.01-.07,.03-.11,.04-.07,.03-.15,.05-.23,.07h0l-.13,.04h-.01l-.27,.09h0c-.6,.16-1.22,.28-1.86,.35-.04,0-.08,0-.12,.01h0l-.19,.02h-.02l-.2,.02h0c-.11,0-.23,.01-.34,.02-.04,0-.09,0-.13,0-.12,0-.23,0-.35,0-.03,0-.07,0-.1,0h-.08c-.17,0-.34,0-.52-.02h-.04c-.18-.01-.35-.03-.52-.05-.02,0-.03,0-.05,0v.03c-.02,.15-.03,.29-.05,.43v.07c-.03,.15-.05,.29-.08,.44h0c-.03,.15-.06,.29-.09,.44l-.02,.08c-.03,.14-.07,.27-.11,.41v.02s.06,0,.09,.01c.05,0,.1,.01,.15,.02,.08,0,.16,.02,.24,.02,.05,0,.1,0,.15,.01,.08,0,.16,.01,.24,.02,.05,0,.1,0,.15,0,.08,0,.17,0,.25,0,.05,0,.1,0,.15,0,.09,0,.17,0,.26,0,.05,0,.09,0,.14,0,.09,0,.19,0,.28,0,.04,0,.08,0,.12,0,.1,0,.21-.01,.31-.02,.03,0,.06,0,.1,0,.14,0,.27-.02,.41-.03h0c.78-.08,1.57-.22,2.34-.44,.03,0,.06-.02,.1-.03Z"/><path class="e" d="M156.3,84.41c-.09-.1-.18-.21-.26-.31-.04-.05-.09-.1-.13-.16-.15-.19-.3-.38-.45-.57-.03-.04-.05-.07-.08-.11-.12-.16-.23-.31-.34-.47-.05-.07-.1-.14-.14-.21-.06-.09-.13-.18-.19-.27l-2.14,2.13-.07-.37c-.1-.51-.15-1.03-.15-1.54,0-1.14,.25-2.24,.73-3.26h0l.04-.09h0l.19-.39h0c.44-.77,1.03-1.48,1.72-2.07,.08-.07,.16-.13,.24-.19h0l.11-.09h0l.23-.17h0l.04-.02s.04-.03,.07-.04c.07-.05,.13-.09,.2-.13,.03-.02,.07-.04,.1-.06,.06-.04,.12-.07,.18-.11,.04-.02,.07-.04,.11-.06,.06-.03,.11-.06,.17-.09,.04-.02,.08-.04,.12-.06,.05-.03,.11-.05,.16-.08,.04-.02,.09-.04,.13-.06,.05-.02,.11-.05,.16-.07,.04-.02,.09-.04,.13-.05,.05-.02,.11-.04,.16-.06,.05-.02,.09-.03,.14-.05,.02,0,.04-.02,.06-.02-.03-.11-.06-.22-.08-.32-.01-.05-.03-.11-.04-.16-.05-.2-.09-.4-.13-.61,0-.02,0-.04-.01-.06-.03-.18-.06-.36-.09-.55-.01-.07-.02-.14-.03-.2-.01-.09-.03-.18-.04-.27h-.05s-.07,.04-.11,.05c-.06,.02-.13,.04-.19,.06-.04,.01-.07,.03-.11,.04-.06,.02-.12,.05-.19,.07-.04,.01-.07,.03-.11,.04-.06,.02-.12,.05-.18,.07-.04,.02-.07,.03-.11,.05-.06,.03-.12,.05-.18,.08-.04,.02-.07,.03-.11,.05-.06,.03-.12,.06-.18,.09-.03,.02-.07,.03-.1,.05-.06,.03-.13,.07-.19,.1-.03,.02-.06,.03-.09,.05-.09,.05-.18,.1-.27,.16-.99,.59-1.85,1.35-2.56,2.24-1.38,1.72-2.1,3.79-2.1,6s.74,4.3,2.1,6l3.9-3.91Z"/><path class="e" d="M189.66,54.78l-1.43,1.42h.01l-2.25,2.22c.08,.09,.16,.19,.24,.28,.04,.04,.07,.08,.11,.12,.14,.16,.27,.33,.4,.5,.03,.03,.05,.07,.08,.1,.1,.13,.2,.27,.3,.4,.05,.06,.09,.13,.14,.19,.05,.07,.1,.14,.15,.21l1.89-1.86,.09,.33c.18,.64,.27,1.32,.27,2.01,0,.91-.16,1.8-.47,2.65h0l-.03,.08h0l-.17,.46v-.02s-.04,.05-.05,.08c-.05,.11-.11,.22-.16,.33-.02,.05-.05,.09-.08,.13-.05,.09-.1,.18-.15,.27-.03,.05-.07,.1-.1,.15-.05,.08-.1,.16-.15,.23-.04,.05-.08,.11-.12,.16-.05,.07-.1,.14-.16,.21-.04,.06-.09,.11-.14,.16-.05,.06-.11,.13-.16,.19-.05,.06-.1,.11-.15,.16-.05,.06-.11,.11-.16,.17-.06,.05-.11,.11-.17,.16-.04,.04-.08,.08-.13,.12h0l-.07,.06c-.07,.06-.14,.12-.22,.18h-.01l-.02,.03s-.06,.05-.09,.07c-.06,.04-.11,.09-.17,.13-.04,.03-.07,.05-.11,.08-.05,.04-.1,.07-.16,.11-.04,.03-.08,.05-.12,.07-.05,.03-.11,.07-.16,.1-.04,.02-.08,.05-.12,.07-.05,.03-.11,.06-.16,.09-.04,.02-.08,.04-.12,.07-.06,.03-.11,.06-.17,.08-.04,.02-.08,.04-.13,.06-.06,.03-.11,.05-.17,.08-.04,.02-.09,.04-.13,.06-.03,.01-.05,.02-.08,.03,.03,.1,.05,.19,.07,.29,.01,.05,.02,.09,.03,.14,.04,.18,.08,.36,.12,.54,0,.04,.01,.07,.02,.11,.03,.15,.05,.29,.08,.44,0,.06,.02,.12,.03,.19,.01,.08,.02,.15,.03,.23h.04s.07-.04,.1-.05c.06-.02,.12-.05,.19-.07,.04-.01,.07-.03,.11-.05,.06-.02,.12-.05,.18-.07,.04-.02,.08-.03,.11-.05,.06-.03,.11-.05,.17-.08,.04-.02,.08-.04,.11-.06,.06-.03,.11-.06,.17-.09,.04-.02,.07-.04,.11-.06,.06-.03,.11-.06,.17-.09,.03-.02,.07-.04,.1-.06,.06-.04,.12-.07,.18-.11,.03-.02,.06-.03,.09-.05,.09-.06,.18-.11,.26-.17,.97-.65,1.81-1.47,2.49-2.42,1.16-1.63,1.78-3.56,1.78-5.57,0-2.15-.69-4.18-1.99-5.87Z"/><path class="e" d="M190.04,77.36c-.02,.07-.04,.13-.06,.19-.03,.09-.06,.18-.09,.28-.05,.15-.1,.3-.16,.45-.03,.08-.06,.16-.09,.24-.07,.19-.15,.38-.23,.57-.01,.03-.03,.07-.04,.1-.09,.21-.18,.41-.27,.62,.02,.05,.04,.1,.06,.16,.02,.05,.04,.1,.06,.15,.02,.07,.05,.14,.07,.2,.02,.05,.03,.1,.05,.15,.02,.07,.04,.14,.06,.21,.01,.05,.03,.1,.04,.16,.02,.07,.03,.14,.05,.21,.01,.05,.02,.1,.03,.16,.01,.07,.03,.14,.04,.21,0,.05,.02,.1,.03,.15,.01,.08,.02,.15,.03,.23,0,.05,.01,.1,.02,.15,0,.08,.01,.17,.02,.25,0,.04,0,.08,0,.12,0,.13,0,.25,0,.38,0,.58-.07,1.16-.2,1.72l-.08,.35-2.3-2.26h0l-1.89-1.86h0l-.24-.23-.06-.06h0l-1.5-1.48-.05-.05c-.05,.08-.09,.15-.14,.22-.04,.06-.08,.12-.12,.18-.09,.14-.19,.28-.28,.41-.02,.04-.05,.07-.07,.11-.12,.17-.25,.33-.38,.5-.04,.05-.08,.1-.12,.15-.07,.09-.14,.18-.21,.26l1.51,1.5h0l2.29,2.28,2.47,2.45h0l1.49,1.49c1.22-1.65,1.86-3.62,1.86-5.69,0-1.92-.56-3.75-1.61-5.33Z"/><path class="e" d="M176.83,52.56h.01c.2,.06,.39,.12,.59,.19,.03,.01,.06,.02,.09,.03,.19,.06,.38,.13,.56,.2,.04,.02,.08,.03,.12,.05,.19,.07,.38,.15,.56,.22l.07,.03c.18,.08,.36,.15,.54,.23l.05,.02s.09-.03,.13-.04c.05-.02,.1-.03,.15-.05,.06-.02,.12-.04,.18-.05,.05-.01,.1-.03,.14-.04,.06-.02,.13-.03,.19-.05,.05-.01,.09-.02,.14-.03,.06-.01,.13-.03,.2-.04,.05,0,.09-.02,.14-.03,.07-.01,.14-.02,.2-.03,.04,0,.09-.01,.13-.02,.07,0,.14-.02,.21-.02,.04,0,.08,0,.13-.01,.08,0,.15-.01,.23-.02,.04,0,.07,0,.11,0,.11,0,.23,0,.34,0,.5,0,.99,.05,1.46,.14l.37,.08-3.54,3.52-.4,.4h0l-.16,.16-.13,.13h0l-1.1,1.1-.46,.46h.02c.16,.1,.31,.19,.47,.29,.03,.02,.06,.04,.09,.06,.15,.1,.31,.19,.46,.29l.06,.04c.14,.1,.29,.2,.43,.3l.06,.05c.15,.11,.29,.22,.43,.34,.01,.01,.03,.02,.04,.03l1.51-1.51h0l2.42-2.43,2.11-2.12h0l1.52-1.52c-1.65-1.21-3.6-1.84-5.65-1.84-1.86,0-3.66,.53-5.21,1.54Z"/><path class="e" d="M164.09,73.2c.07,.03,.13,.06,.2,.09,.04,.02,.09,.04,.13,.07,.07,.03,.13,.07,.19,.1,.04,.02,.09,.05,.13,.07,.07,.04,.14,.08,.21,.12,.04,.02,.07,.04,.11,.06,.1,.06,.2,.12,.3,.19h0c.1,.07,.2,.14,.3,.21,.03,.02,.06,.04,.09,.06,.07,.05,.14,.1,.21,.16,.03,.02,.06,.05,.09,.07,.04,.03,.07,.06,.11,.08l1.27-1.28h0l1.72-1.73h0l.28-.29h0l.48-.48,.73-.74-1.78-1.77-.05,.05-4.91,4.89,.04,.02s.09,.04,.13,.06Z"/><path class="e" d="M152.16,66.32v-.04c.06-.18,.11-.35,.16-.52,0-.03,.02-.06,.03-.09,.06-.18,.11-.36,.17-.54l.04-.11c.06-.18,.13-.36,.19-.53l.03-.08c.06-.17,.13-.33,.2-.5l.02-.05c-.02-.05-.04-.1-.06-.15-.03-.06-.05-.12-.08-.19-.03-.07-.05-.13-.07-.2-.02-.06-.05-.12-.07-.18-.02-.07-.04-.14-.06-.21-.02-.06-.04-.12-.06-.18-.02-.07-.04-.14-.05-.21-.01-.06-.03-.12-.04-.18-.02-.07-.03-.15-.04-.22-.01-.06-.02-.12-.03-.18-.01-.08-.02-.16-.03-.24,0-.06-.02-.11-.02-.17,0-.09-.02-.18-.02-.27,0-.05,0-.1-.01-.14,0-.14-.01-.28-.01-.42,0-.65,.08-1.29,.24-1.91l.09-.34,3.64,3.63,.65,.65h0l.2,.2,.09,.09h0l1.56,1.55c.04-.08,.09-.15,.13-.23,.04-.07,.08-.14,.12-.21,.09-.14,.18-.29,.27-.43,.03-.04,.05-.08,.08-.12,.12-.18,.24-.35,.37-.52,.03-.05,.07-.09,.1-.13,.07-.1,.15-.19,.22-.29l-.08-.08-1.45-1.41h0l-.15-.15-.14-.14h0l-1.82-1.77-.21-.2-2.57-2.5v-.02l-1.48-1.47c-1.24,1.66-1.89,3.64-1.89,5.73s.64,4.02,1.85,5.67Z"/><path class="e" d="M182.53,69.82c-.02-.15-.05-.3-.07-.44,0-.03,0-.06-.02-.09-.03-.18-.07-.35-.12-.53-.01-.04-.02-.09-.03-.13-.03-.1-.05-.2-.08-.3-.03,0-.05,0-.08,0-.03,0-.05,0-.08,0h-.05c-.07,0-.14,0-.2,0h-.02c-.54-.02-1.07-.1-1.59-.23-.05-.01-.1-.03-.15-.04h0l-.1-.03h-.01l-.33-.1h0c-.69-.24-1.35-.57-1.95-1-.05-.04-.1-.08-.15-.11h0l-.14-.11h0l-.18-.14h0c-.06-.05-.12-.1-.18-.16l-.05-.04c-.11-.1-.22-.2-.32-.31l-.06-.06c-.1-.11-.2-.21-.3-.32l-.04-.05c-.1-.12-.19-.23-.28-.36h0l-1.39,1.39c.04,.06,.09,.11,.14,.17,.04,.05,.09,.1,.13,.15,.07,.08,.14,.16,.22,.24,.04,.05,.09,.09,.13,.14,.08,.08,.16,.16,.25,.24,.04,.04,.08,.08,.12,.11,.13,.12,.25,.23,.38,.34,.61,.51,1.28,.94,1.99,1.28,.1,.05,.2,.09,.3,.14h0c.3,.14,.61,.25,.92,.35,.78,.25,1.59,.4,2.42,.44,.17,0,.33,.01,.5,.01,.09,0,.17,0,.25,0h.06c.07,0,.13,0,.2-.01h.02c0-.08-.02-.17-.03-.25,0-.06-.01-.12-.02-.18Z"/><path class="e" d="M159.9,73.21v.09c.04,.16,.07,.33,.1,.49v.05c.04,.16,.08,.32,.12,.48v.06c.06,.16,.1,.32,.15,.48l.02,.05s.07,0,.11,0c.05,0,.1,0,.15,0,.07,0,.14,.01,.2,.02,.04,0,.08,0,.13,.01,.08,0,.16,.02,.24,.03,.03,0,.06,0,.1,.01,.08,.01,.15,.03,.23,.04h0l.1,.02h0l.37,.08h0c.81,.22,1.58,.56,2.27,1.03,.07,.04,.13,.09,.19,.14h0l.14,.1h0l.19,.14h0c.07,.06,.14,.11,.2,.17,.04,.03,.08,.07,.11,.1,.09,.08,.17,.15,.25,.23,.04,.04,.09,.09,.13,.13,.07,.07,.14,.15,.21,.22,.05,.05,.09,.1,.13,.15,.04,.04,.08,.08,.11,.13l1.5-1.47s-.07-.09-.11-.13c-.05-.06-.09-.11-.14-.16-.06-.07-.12-.14-.19-.2-.05-.05-.09-.1-.14-.15-.07-.07-.14-.14-.22-.21-.04-.04-.09-.08-.13-.13-.12-.11-.24-.21-.36-.32-.78-.65-1.65-1.16-2.57-1.52-.99-.4-2.03-.63-3.11-.68-.15,0-.31-.01-.46-.01h-.09v.03c.02,.16,.04,.32,.06,.48Z"/><path class="e" d="M169.05,64.79c-.07,.14-.14,.29-.21,.43-.02,.03-.03,.07-.05,.1-.07,.14-.15,.28-.23,.42-.01,.02-.03,.05-.04,.07-.08,.13-.15,.25-.24,.37-.02,.02-.03,.05-.04,.07-.09,.13-.18,.26-.28,.39-.01,.01-.02,.03-.03,.04l.96,.95h0l.25,.25,.03,.03h0l1.78,1.77h0l1.51,1.5,.85-.84,.7-.69-.11-.11-1.13-1.11h0l-.21-.21-.08-.08h0l-2.07-2.04h0l-1.35-1.33v.02Z"/><path class="e" d="M159.03,65.01c-.06,.11-.11,.21-.17,.32-.02,.04-.04,.08-.06,.11-.04,.07-.07,.14-.1,.22-.02,.05-.04,.09-.06,.14-.03,.07-.06,.13-.09,.2-.02,.05-.04,.1-.06,.15-.03,.06-.05,.13-.08,.19-.02,.05-.04,.1-.06,.15-.02,.06-.05,.13-.07,.19-.02,.05-.04,.1-.06,.16-.02,.06-.05,.13-.07,.19-.02,.05-.04,.11-.05,.16-.02,.06-.04,.13-.06,.19-.02,.05-.03,.11-.05,.16,0,.03-.02,.06-.03,.09h.02c.63,.18,1.27,.27,1.92,.28,.01-.05,.03-.09,.05-.14,.02-.05,.03-.1,.05-.15,.03-.07,.05-.15,.08-.22,.02-.05,.03-.09,.05-.14,.03-.08,.06-.16,.1-.24,.01-.04,.03-.07,.04-.11,.03-.07,.06-.14,.09-.21h0l.04-.09,.02-.04s.02-.05,.03-.07l.09-.19h0c.32-.66,.7-1.29,1.14-1.88,.03-.05,.07-.09,.11-.14h0l.11-.14h0l.14-.18h0c.07-.08,.14-.17,.21-.25,.03-.04,.07-.08,.11-.12,.09-.1,.17-.19,.26-.28,.05-.05,.1-.1,.14-.15,.08-.08,.16-.16,.24-.24,.06-.05,.11-.1,.17-.16,.05-.04,.09-.09,.14-.13l-1.38-1.37c-.05,.05-.11,.1-.16,.15-.05,.05-.11,.1-.16,.15-.08,.08-.16,.16-.24,.24-.05,.05-.1,.1-.14,.14-.08,.09-.16,.18-.24,.27-.04,.04-.08,.09-.12,.13-.12,.13-.23,.27-.34,.41-.57,.68-1.07,1.44-1.5,2.25h0Z"/><path class="e" d="M177.74,69.7s-.06-.03-.1-.05c-.07-.03-.13-.07-.2-.1-.03-.02-.07-.04-.1-.05-.07-.03-.13-.07-.2-.11-.03-.02-.06-.03-.09-.05-.07-.04-.14-.08-.21-.13-.02-.01-.05-.03-.07-.04-.19-.12-.37-.24-.56-.37l-.06-.04c-.07-.05-.14-.1-.21-.16-.03-.02-.05-.04-.07-.06-.03-.02-.06-.05-.09-.07l-.24,.24-.94,.93h0l-.19,.19-.1,.09h0l-.63,.62-2.42,2.38,1.63,1.58,.24-.24,4.64-4.57h-.02Z"/><path class="e" d="M180.07,78.71l.03-.03c.1-.13,.2-.26,.3-.39l.05-.07c.1-.14,.2-.28,.29-.42l.02-.03c.09-.14,.18-.28,.26-.42l.03-.05c.08-.14,.16-.28,.24-.42l.03-.05-.29-.28-4.81-4.74-1.56,1.54,5.15,5.11,.26,.26Z"/><path class="e" d="M167.01,58.34h-.01c-.12,.04-.25,.08-.37,.13-.03,.01-.06,.02-.09,.03-.09,.03-.18,.06-.26,.1-.05,.02-.09,.04-.14,.06-.07,.03-.14,.06-.21,.09-.05,.02-.11,.04-.16,.07-.06,.03-.13,.06-.19,.08-.05,.02-.11,.05-.16,.07-.06,.03-.12,.06-.18,.09-.05,.03-.11,.05-.16,.08-.06,.03-.12,.06-.18,.09-.05,.03-.11,.06-.16,.08-.06,.03-.12,.07-.18,.1-.05,.03-.1,.06-.15,.09l-.06,.03,.85,.84,.59,.58c.05-.03,.11-.05,.16-.08,.06-.03,.11-.06,.17-.08,.08-.04,.17-.08,.25-.12,.05-.02,.1-.05,.15-.07,.09-.04,.19-.08,.28-.12,.04-.02,.09-.04,.13-.05,.09-.03,.18-.07,.27-.1h0l.14-.05h0l.25-.09h0c.59-.19,1.21-.34,1.82-.43,.04,0,.07-.01,.11-.02h0l.19-.03h.03l.18-.03h0c.11-.01,.22-.02,.33-.03h.07c.17-.02,.34-.03,.51-.03,.04,0,.07,0,.11,0,.16,0,.33,0,.49,0,.04,0,.08,0,.12,0,.17,0,.33,.01,.5,.02h.04v-.03c.02-.14,.03-.29,.05-.43v-.07c.03-.14,.06-.28,.08-.42v-.02c.03-.14,.06-.29,.1-.43l.02-.08c.04-.14,.07-.28,.12-.42h0s-.07-.02-.1-.02c-.06,0-.12,0-.17-.01-.08,0-.17-.01-.25-.02-.05,0-.11,0-.16,0-.09,0-.18,0-.27,0-.05,0-.1,0-.15,0-.09,0-.19,0-.28,0-.04,0-.09,0-.13,0-.1,0-.2,0-.29,0-.04,0-.08,0-.12,0-.1,0-.2,.01-.31,.02-.03,0-.07,0-.1,0-.11,0-.22,.02-.32,.03-.03,0-.05,0-.08,0-.13,.01-.27,.03-.4,.05-.22,.03-.44,.07-.65,.11-.56,.1-1.11,.24-1.64,.41Z"/><path class="e" d="M175.69,55.79c-.14-.04-.28-.08-.42-.11-.06-.01-.11-.03-.17-.04-.2-.05-.4-.09-.6-.13h-.06c-.16-.04-.31-.07-.47-.1-.02,.03-.04,.07-.06,.1-.02,.04-.05,.07-.07,.11-.03,.05-.07,.11-.1,.16-.02,.04-.05,.08-.07,.12-.03,.05-.06,.11-.09,.16-.02,.04-.04,.08-.06,.12-.03,.06-.06,.11-.08,.17-.02,.04-.04,.08-.06,.12-.03,.06-.06,.12-.08,.18-.02,.04-.03,.07-.05,.11-.03,.06-.05,.13-.08,.19-.01,.03-.03,.07-.04,.1-.03,.07-.06,.14-.08,.22-.01,.03-.02,.05-.03,.08-.04,.1-.07,.2-.1,.3-.22,.67-.37,1.36-.44,2.06h0l-.02,.2v.2h-.02c-.01,.17-.02,.34-.02,.54,0,.14,0,.27,0,.41,0,.04,0,.09,0,.13,0,.09,.01,.18,.02,.27,0,.05,.01,.11,.02,.16,0,.08,.02,.16,.03,.24,0,.06,.02,.11,.02,.17,.01,.08,.02,.15,.03,.23,0,.06,.02,.11,.03,.17,.01,.07,.03,.15,.04,.22,.01,.06,.02,.11,.04,.17,.02,.07,.04,.15,.05,.22,.01,.05,.03,.11,.04,.16,.02,.08,.04,.15,.07,.23,.02,.05,.03,.1,.05,.15l.02,.05,1.63-1.62s-.01-.09-.02-.13c0-.05-.02-.1-.02-.15,0-.07-.02-.14-.02-.21,0-.04-.01-.09-.01-.13,0-.08-.01-.16-.02-.24,0-.04,0-.07,0-.11,0-.12,0-.23,0-.35,0-.07,0-.14,0-.21h0v-.15h0v-.27h.02c.05-.65,.19-1.29,.41-1.9h0l.08-.2h0l.07-.18h0s.03-.08,.05-.12c.01-.03,.02-.05,.04-.08,.03-.07,.06-.14,.1-.21,.02-.03,.03-.07,.05-.1,.03-.06,.06-.12,.1-.19,.02-.03,.04-.07,.06-.1,.03-.06,.07-.12,.1-.18,.02-.03,.04-.07,.06-.1,.04-.06,.07-.12,.11-.17,.02-.03,.04-.06,.06-.1,.04-.06,.08-.12,.12-.18,.02-.03,.04-.06,.06-.09,.05-.06,.09-.13,.14-.19,.02-.02,.03-.05,.05-.07h.01c-.07-.03-.13-.06-.2-.08-.07-.02-.14-.04-.21-.06Z"/><path class="e" d="M184.47,67.7c-.04-.13-.08-.26-.12-.39-.01-.04-.03-.09-.04-.13-.03-.09-.06-.17-.09-.25-.02-.05-.04-.1-.06-.16-.03-.07-.05-.15-.08-.22-.02-.06-.04-.11-.07-.17-.03-.07-.06-.14-.08-.21-.02-.06-.05-.11-.07-.17-.03-.07-.06-.13-.09-.2-.03-.06-.05-.11-.08-.17-.03-.07-.06-.13-.09-.2-.03-.05-.05-.11-.08-.16-.03-.07-.07-.14-.1-.2-.03-.05-.05-.1-.08-.15-.01-.03-.03-.05-.04-.08l-1.45,1.42c.03,.06,.06,.12,.08,.18,.03,.06,.06,.13,.09,.19,.04,.09,.08,.18,.11,.27,.03,.06,.05,.12,.08,.19,.04,.1,.08,.21,.12,.31,.02,.05,.04,.11,.06,.16,.04,.11,.07,.22,.11,.34h0l.05,.15h0l.07,.25h0c.17,.62,.29,1.25,.36,1.9h0l.02,.2h0l.02,.2h0c.02,.29,.04,.57,.04,.86,0,.12,0,.23,0,.34,0,.04,0,.08,0,.12,0,.07,0,.15-.01,.22,0,.05,0,.09,0,.14,0,.07-.01,.14-.02,.2,0,.04,0,.09-.01,.13,0,.03,0,.05,0,.08h.03c.14,.02,.27,.03,.41,.05,.03,0,.07,0,.1,.01,.13,.02,.25,.04,.38,.06h.05c.14,.04,.27,.07,.4,.1,.04,0,.07,.02,.11,.03,.13,.03,.26,.07,.4,.11h.02s0-.07,.01-.11c0-.06,.01-.12,.02-.18,0-.09,.02-.17,.02-.26,0-.06,0-.11,.01-.17,0-.1,.01-.2,.01-.29,0-.05,0-.1,0-.14,0-.15,0-.3,0-.44,0-.49-.03-.99-.08-1.49-.08-.79-.23-1.56-.44-2.29Z"/><path class="e" d="M180.02,60.88c-.73-.61-1.52-1.14-2.35-1.58l-.03-.02h-.01c-.17-.1-.35-.19-.52-.27l-.05-.03c-.18-.08-.35-.16-.53-.24l-.07-.03c-.18-.07-.36-.14-.54-.21l-.08-.03c-.18-.07-.37-.13-.55-.18h-.04l-.02,.03s-.03,.07-.04,.11c-.02,.05-.03,.1-.05,.14-.01,.04-.02,.07-.03,.11-.02,.05-.03,.11-.04,.16,0,.03-.02,.06-.03,.1-.02,.07-.03,.13-.05,.2,0,.02,0,.04-.01,.06-.02,.09-.04,.18-.05,.26v.06c-.02,.07-.03,.14-.04,.21,0,.03,0,.06-.01,.08,0,.06-.01,.13-.02,.19v.09s-.01,.06-.01,.09c.04,.01,.07,.02,.11,.04,.05,.02,.1,.03,.15,.05,.07,.02,.13,.05,.2,.07,.04,.02,.09,.03,.13,.05,.07,.03,.15,.06,.22,.09,.04,.01,.07,.03,.11,.04,.11,.05,.21,.09,.32,.14,.79,.35,1.54,.79,2.23,1.31,.06,.05,.12,.09,.18,.14h0l.14,.11h0l.17,.14h0c.08,.07,.16,.14,.24,.21,.05,.04,.1,.09,.14,.13,.09,.08,.17,.16,.26,.24,.05,.05,.1,.1,.15,.15,.08,.08,.15,.15,.23,.23,.05,.05,.1,.11,.15,.16,.04,.05,.09,.1,.13,.15l.7-.69,.68-.67s-.09-.1-.13-.15c-.05-.06-.1-.12-.16-.17-.07-.08-.15-.15-.22-.23-.05-.05-.1-.1-.15-.15-.09-.08-.17-.16-.26-.25-.04-.04-.09-.08-.13-.12-.13-.12-.27-.24-.41-.35Z"/></g></svg>